<?xml version="1.0" ?><!DOCTYPE svg  PUBLIC '-//W3C//DTD SVG 1.1//EN'  'http://www.w3.org/Graphics/SVG/1.1/DTD/svg11.dtd'><svg enable-background="new 0 75.9 595.3 690" version="1.1" viewBox="0 75.9 595.3 690" xml:space="preserve" xmlns="http://www.w3.org/2000/svg" xmlns:xlink="http://www.w3.org/1999/xlink"><g id="Webbdesign_Solid"><g><path fill="#ffffff" d="M417.3,317.3H177.7c-5,0-9.1,4.1-9.1,9.1v173.5h96.7v1.6c0,5,4.1,9.1,9.1,9.1h46.2c5,0,9.1-4.1,9.1-9.1v-1.6h96.7V326.4    C426.4,321.4,422.3,317.3,417.3,317.3z"/><path fill="#ffffff" d="M297.6,76.6L0,248.8v344.4l297.6,172.2l297.6-172.2V248.8L297.6,76.6z M469.4,512.3c0,16.9-13.7,30.6-30.6,30.6h-21.5    H177.7h-21.5c-16.9,0-30.6-13.7-30.6-30.6v-12.4h21.5V326.4c0-16.9,13.7-30.6,30.6-30.6h239.6c16.9,0,30.6,13.7,30.6,30.6v173.5    h21.5V512.3z"/></g></g></svg>