<?xml version="1.0" ?><svg height="24px" version="1.1" viewBox="0 0 24 24" width="24px" xmlns="http://www.w3.org/2000/svg" xmlns:sketch="http://www.bohemiancoding.com/sketch/ns" xmlns:xlink="http://www.w3.org/1999/xlink"><title/><desc/><defs/><g fill="none" fill-rule="evenodd" id="miu" stroke="none" stroke-width="1"><g id="Artboard-1" transform="translate(-899.000000, -623.000000)"><g id="slice" transform="translate(215.000000, 119.000000)"/><path d="M912,639.95779 C912.597801,639.595513 913,638.918391 913,638.142857 C913,636.985689 912.10457,636.047619 911,636.047619 C909.89543,636.047619 909,636.985689 909,638.142857 C909,638.918391 909.402199,639.595513 910,639.95779 L910,641.809524 C910,641.809524 910.003069,642.857143 911.001535,642.857143 C912,642.857143 912,641.809524 912,641.809524 L912,639.95779 L912,639.95779 Z M904.000872,632 C903.448106,632 903,632.465805 903,633.040838 L903,644.959162 C903,645.534001 903.444631,646 904.000872,646 L917.999128,646 C918.551895,646 919,645.534195 919,644.959162 L919,633.040838 C919,632.465999 918.555369,632 917.999128,632 L904.000872,632 L904.000872,632 Z M906.741847,626.344974 C905.978516,627.730654 906.978516,628.072289 907.54698,626.975988 C908.069782,625.967748 909.073393,625 911,625 C915.021484,625 915.036744,629.238095 915.036744,629.238095 L915.036744,631.998047 L916.036744,631.998047 L916.036744,629.238095 C916.036744,629.238095 916.036743,624 911,624 C908.65846,624 907.40879,625.134267 906.741847,626.344974 Z" fill="#000000" id="editor-unlock-lock-glyph"/></g></g></svg>