<?xml version="1.0" ?><svg height="24px" version="1.1" viewBox="0 0 24 24" width="24px" xmlns="http://www.w3.org/2000/svg" xmlns:sketch="http://www.bohemiancoding.com/sketch/ns" xmlns:xlink="http://www.w3.org/1999/xlink"><title/><desc/><defs/><g fill="none" fill-rule="evenodd" id="miu" stroke="none" stroke-width="1"><g id="Artboard-1" transform="translate(-827.000000, -623.000000)"><g id="slice" transform="translate(215.000000, 119.000000)"/><path d="M840,639.95779 C840.597801,639.595513 841,638.918391 841,638.142857 C841,636.985689 840.10457,636.047619 839,636.047619 C837.89543,636.047619 837,636.985689 837,638.142857 C837,638.918391 837.402199,639.595513 838,639.95779 L838,641.809524 C838,641.809524 838.003069,642.857143 839.001535,642.857143 C840,642.857143 840,641.809524 840,641.809524 L840,639.95779 L840,639.95779 Z M832.000872,632 C831.448106,632 831,632.465805 831,633.040838 L831,644.959162 C831,645.534001 831.444631,646 832.000872,646 L845.999128,646 C846.551895,646 847,645.534195 847,644.959162 L847,633.040838 C847,632.465999 846.555369,632 845.999128,632 L832.000872,632 L832.000872,632 Z M833.978516,629.216465 L833.978516,631.998047 L834.978516,631.998047 L834.978516,629.216465 C834.978516,629.216465 834.978516,625 839,625 C843.021484,625 843.036744,629.238095 843.036744,629.238095 L843.036743,631.998047 L844.036744,631.998047 L844.036744,629.238095 C844.036744,629.238095 844.036743,624 839,624 C833.978516,624 833.978516,629.216465 833.978516,629.216465 Z" fill="#000000" id="editor-lock-glyph"/></g></g></svg>