<?xml version="1.0" ?><svg height="24px" version="1.1" viewBox="0 0 24 24" width="24px" xmlns="http://www.w3.org/2000/svg" xmlns:sketch="http://www.bohemiancoding.com/sketch/ns" xmlns:xlink="http://www.w3.org/1999/xlink"><title/><desc/><defs/><g fill="none" fill-rule="evenodd" id="miu" stroke="none" stroke-width="1"><g id="Artboard-1" transform="translate(-791.000000, -227.000000)"><g id="slice" transform="translate(215.000000, 119.000000)"/><path d="M799,231.52 L799,244.94 C799,244.94 799,250.000002 803.5,250 C808,249.999998 808,244.94 808,244.94 L808,231.52 C808,230.97 807,230.97 807,231.52 L807,244.940001 C807,244.940001 807.363636,249 803.5,249 C800,249 800,244.940001 800,244.940001 L800,231.52 C800,231.52 800,229.000001 802.5,229 C805,228.999999 805,231.52 805,231.52 L805,244.940001 C805,244.940001 805,246.517555 803.540816,246.517554 C802.081633,246.517552 802,244.940001 802,244.940001 L802,232.18 C802,231.63 801,231.63 801,232.18 L801,244.94 C801,244.94 800.813544,247.617556 803.540816,247.617554 C806,247.617552 806,244.94 806,244.94 L806,231.52 C806,231.52 806,227.999999 802.5,228 C799,228.000001 799,231.52 799,231.52 Z" fill="#000000" id="editor-attachment-paper-clip"/></g></g></svg>