<?xml version="1.0" ?><!DOCTYPE svg  PUBLIC '-//W3C//DTD SVG 1.1//EN'  'http://www.w3.org/Graphics/SVG/1.1/DTD/svg11.dtd'><svg enable-background="new 0 0 96 96" height="96px" id="no" version="1.1" viewBox="0 0 96 96" width="96px" xml:space="preserve" xmlns="http://www.w3.org/2000/svg" xmlns:xlink="http://www.w3.org/1999/xlink"><path d="M48,4C23.7,4,4,23.7,4,48c0,24.301,19.7,44,44,44c24.301,0,44-19.699,44-44C92,23.7,72.301,4,48,4z M12,48  c0-8.5,2.953-16.306,7.879-22.464l50.586,50.585C64.307,81.047,56.5,84,48,84C28.118,84,12,67.882,12,48z M76.121,70.465  L25.536,19.879C31.694,14.953,39.5,12,48,12c19.882,0,36,16.118,36,36C84,56.5,81.047,64.307,76.121,70.465z"/></svg>