<?xml version="1.0" ?><!DOCTYPE svg  PUBLIC '-//W3C//DTD SVG 1.1//EN'  'http://www.w3.org/Graphics/SVG/1.1/DTD/svg11.dtd'><svg height="512px" style="enable-background:new 0 0 512 512;" version="1.1" viewBox="0 0 512 512" width="512px" xml:space="preserve" xmlns="http://www.w3.org/2000/svg" xmlns:xlink="http://www.w3.org/1999/xlink"><g id="A_-_169_x2C__presentation_x2C__project_x2C__graph_x2C__business_x2C_"><g><rect fill="#ffffff" height="77.752" width="15.031" x="157.517" y="199.299"/><path fill="#ffffff" d="M458.971,332.752h-1.68H54.759h-1.671c-5.148,0-9.335,4.206-9.335,9.376c0,5.118,4.188,9.281,9.335,9.281H209.61h30.855    h0.132h30.896h0.331h31.036h156.11c5.115,0,9.277-4.163,9.277-9.281C468.248,336.958,464.086,332.752,458.971,332.752z"/><rect fill="#ffffff" height="35.593" width="15.03" x="193.766" y="241.458"/><rect fill="#ffffff" height="44.623" width="15.08" x="121.27" y="232.429"/><polygon fill="#ffffff" points="277.902,357.969 349.572,467.086 372.761,467.086 301.09,357.969   "/><rect fill="#ffffff" height="62.118" width="15.031" x="230.013" y="214.934"/><rect fill="#ffffff" height="77.752" width="15.072" x="339.41" y="199.299"/><rect fill="#ffffff" height="35.593" width="15.029" x="303.205" y="241.458"/><polygon fill="#ffffff" points="237.186,415.993 237.186,365.857 204.255,415.993   "/><polygon fill="#ffffff" points="211.379,357.969 139.663,467.086 162.849,467.086 234.519,357.969   "/><rect fill="#ffffff" height="109.117" width="24.467" x="243.746" y="357.969"/><rect fill="#ffffff" height="62.118" width="15.03" x="266.956" y="214.934"/><path fill="#ffffff" d="M266.634,55.594c0-5.789-4.87-10.68-10.634-10.68c-5.765,0-10.634,4.891-10.634,10.68v16.543h21.268V55.594z"/><path fill="#ffffff" d="M454.011,326.192V103.82H58.039v222.373H454.011z M367.159,120.339h65.424c1.812,0,3.28,1.469,3.28,3.28    c0,1.812-1.469,3.28-3.28,3.28h-65.424c-1.812,0-3.28-1.468-3.28-3.28C363.879,121.808,365.348,120.339,367.159,120.339z     M367.159,134.579h65.424c1.812,0,3.28,1.469,3.28,3.28c0,1.812-1.469,3.28-3.28,3.28h-65.424c-1.812,0-3.28-1.468-3.28-3.28    C363.879,136.048,365.348,134.579,367.159,134.579z M367.159,153.655h65.424c1.812,0,3.28,1.468,3.28,3.28    c0,1.811-1.469,3.28-3.28,3.28h-65.424c-1.812,0-3.28-1.469-3.28-3.28C363.879,155.123,365.348,153.655,367.159,153.655z     M367.159,167.986h65.424c1.812,0,3.28,1.468,3.28,3.28c0,1.811-1.469,3.28-3.28,3.28h-65.424c-1.812,0-3.28-1.469-3.28-3.28    C363.879,169.454,365.348,167.986,367.159,167.986z M397.29,229.149v51.183c0,1.812-1.469,3.279-3.28,3.279h-21.639    c-1.811,0-3.279-1.468-3.279-3.279v-51.183c0-1.812,1.469-3.28,3.279-3.28h21.639C395.821,225.869,397.29,227.337,397.29,229.149z     M332.852,196.02c0-1.811,1.469-3.28,3.279-3.28h21.632c1.812,0,3.28,1.469,3.28,3.28v84.313c0,1.812-1.469,3.279-3.28,3.279    h-21.632c-1.811,0-3.279-1.468-3.279-3.279V196.02z M296.645,238.179c0-1.812,1.469-3.28,3.28-3.28h21.589    c1.813,0,3.28,1.468,3.28,3.28v42.153c0,1.812-1.468,3.279-3.28,3.279h-21.589c-1.812,0-3.28-1.468-3.28-3.279V238.179z     M260.396,211.654c0-1.811,1.468-3.28,3.279-3.28h21.59c1.813,0,3.28,1.469,3.28,3.28v68.678c0,1.812-1.468,3.279-3.28,3.279    h-21.59c-1.812,0-3.279-1.468-3.279-3.279V211.654z M223.453,211.654c0-1.811,1.469-3.28,3.28-3.28h21.59    c1.812,0,3.28,1.469,3.28,3.28v68.678c0,1.812-1.468,3.279-3.28,3.279h-21.59c-1.812,0-3.28-1.468-3.28-3.279V211.654z     M187.206,238.179c0-1.812,1.468-3.28,3.279-3.28h21.59c1.812,0,3.28,1.468,3.28,3.28v42.153c0,1.812-1.469,3.279-3.28,3.279    h-21.59c-1.812,0-3.279-1.468-3.279-3.279V238.179z M150.958,196.02c0-1.811,1.469-3.28,3.28-3.28h21.591    c1.811,0,3.28,1.469,3.28,3.28v84.313c0,1.812-1.469,3.279-3.28,3.279h-21.591c-1.811,0-3.28-1.468-3.28-3.279V196.02z     M114.71,229.149c0-1.812,1.468-3.28,3.28-3.28h21.639c1.812,0,3.28,1.468,3.28,3.28v51.183c0,1.812-1.468,3.279-3.28,3.279    H117.99c-1.812,0-3.28-1.468-3.28-3.279V229.149z M110.313,289.245H256h145.646c1.811,0,3.279,1.468,3.279,3.279    c0,1.813-1.469,3.28-3.279,3.28H256H110.313c-1.812,0-3.28-1.468-3.28-3.28C107.034,290.713,108.501,289.245,110.313,289.245z"/><rect fill="#ffffff" height="44.623" width="15.08" x="375.65" y="232.429"/><polygon fill="#ffffff" points="274.773,415.993 308.166,415.993 274.773,365.151   "/><path fill="#ffffff" d="M53.088,97.26h1.671h402.532h1.68c5.115,0,9.277-4.164,9.277-9.281c0-5.032-4.25-9.281-9.277-9.281H269.914h-27.828    H53.088c-5.148,0-9.335,4.163-9.335,9.281C43.752,93.096,47.94,97.26,53.088,97.26z"/></g></g><g id="Layer_1"/></svg>