<?xml version="1.0" ?><!DOCTYPE svg  PUBLIC '-//W3C//DTD SVG 1.1//EN'  'http://www.w3.org/Graphics/SVG/1.1/DTD/svg11.dtd'><svg height="512px" style="enable-background:new 0 0 512 512;" version="1.1" viewBox="0 0 512 512" width="512px" xml:space="preserve" xmlns="http://www.w3.org/2000/svg" xmlns:xlink="http://www.w3.org/1999/xlink"><g id="_x32_21_x2C__shop_x2C__donate_x2C__shopping_x2C__online_x2C__hand"><g><path fill="#ffffff" d="M176.089,368.298c37.594-14.005,56.91-7.81,77.321-1.224    c13.406,4.322,27.359,8.8,47.719,7.29c16.01-1.198,52.643-18.405,82.712-37.567c24.89-15.854,45.118-32.673,44.465-41.889    l-0.104-0.938c-0.625-4.556-3.489-7.212-7.209-8.669c-4.219-1.666-9.609-1.927-14.399-1.563c-1.302,0.078-2.499,0.233-3.618,0.364    c-11.168,1.563-26.033,6.301-40.275,12.419c-13.746,5.909-26.865,13.043-35.404,19.759c-2.709,5.963-9.061,9.113-17.263,10.414    c-19.604,3.072-50.453-5.232-62.35-8.461l-2.762-0.729c-1.691-0.443-2.706-2.188-2.239-3.905c0.442-1.692,2.19-2.708,3.906-2.266    l2.734,0.729c11.561,3.124,41.524,11.195,59.722,8.332c8.619-1.354,14.347-5.391,13.068-14.241l-0.154-0.833    c-2.733-13.59-24.889-22.729-49.778-28.04c-25.668-5.492-54.021-6.69-67.87-4.503l-1.72,0.313    c-9.97,1.979-22.91,7.393-35.586,13.589c-11.353,5.521-22.313,11.611-30.852,16.479c5.103,5.938,11.845,15.882,18.46,26.555    C163.251,343.644,171.74,358.979,176.089,368.298 M140.422,370.928c-1.067-0.833-2.45-1.275-3.882-1.12    c-1.432,0.157-2.681,0.911-3.513,1.953c-0.832,1.042-1.278,2.447-1.12,3.879c0.154,1.433,0.884,2.681,1.951,3.515    c1.042,0.859,2.421,1.275,3.881,1.119c1.432-0.156,2.682-0.885,3.513-1.953c0.832-1.04,1.277-2.42,1.12-3.878    C142.19,373.01,141.46,371.761,140.422,370.928z M135.838,363.455c3.176-0.338,6.222,0.625,8.539,2.474    c2.344,1.849,3.983,4.608,4.324,7.811c0.365,3.202-0.6,6.249-2.45,8.565c-1.846,2.344-4.633,3.957-7.809,4.321    c-3.176,0.364-6.223-0.599-8.567-2.474c-2.341-1.848-3.955-4.607-4.32-7.81c-0.365-3.177,0.625-6.222,2.475-8.565    C129.875,365.461,132.638,363.82,135.838,363.455z M372.203,128.914l0.494-0.052h0.025l0.158-0.026l0.336-0.025l0.158-0.026    c2.836-0.469,5.363-1.822,7.289-3.749c1.717-1.744,2.966-3.905,3.566-6.326h-26.139l0.158,0.547l0,0l0.052,0.234h0.024    l0.078,0.338h0.027l0.025,0.104l0,0l0.023,0.105l0,0l0.081,0.207l0,0l0.053,0.105l0.077,0.234l0,0l0.053,0.104l0,0l0.053,0.104    l0.049,0.104l0,0l0.028,0.104l0,0l0.053,0.104l0.049,0.104l0.053,0.104l0.053,0.104l0,0l0.053,0.104l0,0l0.053,0.104l0,0    l0.053,0.104l0,0l0.049,0.104l0,0l0.053,0.105l0.053,0.078l0,0l0.053,0.104l0,0l0.052,0.105l0,0l0.078,0.104l0,0l0.053,0.104    l0.053,0.078l0,0l0.053,0.104l0,0l0.076,0.104l0,0l0.053,0.078v0.026l0.05,0.078h0.028l0.053,0.104l0.053,0.078l0.076,0.104    l0.053,0.104l0,0l0.078,0.078l0.076,0.104l0.053,0.078l0.078,0.105l0.052,0.078l0.077,0.104l0.081,0.078l0.077,0.078l0.053,0.104    l0.077,0.078l0.077,0.078l0.077,0.104l0.081,0.078l0.077,0.078l0.077,0.078l0.053,0.104h0.024l0.053,0.078l0.104,0.078    l0.078,0.078l0.08,0.079c2.418,2.447,5.777,3.957,9.5,3.957l0.86-0.053H372.203z M328.334,125.01    c0.572,0.572,1.197,1.094,1.85,1.562h0.025l0.263,0.183l0,0l0.39,0.26l0,0l0.414,0.234l0,0l0.287,0.156h0.029l0.102,0.053    l0.027,0.025l0.26,0.131l0.025,0.025l0.104,0.053h0.053l0.103,0.051l0.052,0.027l0.105,0.051h0.024l0.105,0.053l0.053,0.025    l0.102,0.053h0.053l0.158,0.078l0.077,0.025l0.077,0.027l0.08,0.025l0.078,0.025l0.076,0.026l0.078,0.026l0.08,0.052h0.078    l0.076,0.052h0.078l0.08,0.026l0.078,0.026l0.052,0.025l0.103,0.026l0.053,0.026l0.104,0.025l0.077,0.026l0.077,0.026h0.081    l0.077,0.025l0.077,0.026l0.077,0.026h0.081l0.102,0.025l0.053,0.026l0.105,0.026h0.053l0.102,0.025l0.053,0.026h0.129    l0.029,0.026h0.129l0.053,0.025l0.102,0.026h0.053l0.131,0.026h0.027h0.13l0.024,0.025l0.313,0.026h0.028l0.154,0.026l0,0h0.157    h0.025l0.158,0.025l0,0h0.154h0.024l0.157,0.026l0,0h0.184l0,0h0.154l0.182,0.026l0,0h0.158h0.025h0.157l0,0l0.183-0.026l0,0    h0.154h0.028h0.154l0,0l0.183-0.026l0,0h0.158l0,0l0.182-0.025l0,0h0.154l0,0l0.184-0.026l0,0l0.154-0.026l0,0l0.182-0.025l0,0    h0.158l0,0l0.154-0.026h0.028l0.154-0.052l0,0l0.158-0.026l0,0l0.183-0.026l0,0l0.154-0.025l0,0l0.158-0.053l0,0l0.154-0.025    h0.027l0.154-0.053l0,0l0.158-0.025l0.154-0.053l0,0l0.158-0.052l0,0l0.154-0.052l0,0l0.158-0.053l0,0l0.154-0.052l0.158-0.052    l0.154-0.053l0.158-0.051l0.154-0.053l0,0l0.158-0.078l0.154-0.053l0.158-0.078l0.129-0.051l0,0l0.154-0.078l0.158-0.053    l0.13-0.078l0.158-0.078l0.13-0.078l0.154-0.078l0.13-0.078l0.157-0.078l0.131-0.078l0.154-0.078l0.129-0.104l0.134-0.078    l0.13-0.078l0.154-0.104l0.13-0.078l0.13-0.104l0.13-0.078l0.134-0.104l0.129-0.104l0.131-0.105l0.129-0.104l0.103-0.078    l0.134-0.131l0.129-0.078l0.131-0.129l0.102-0.105l0.129-0.104l0.105-0.104l0.131-0.104l0.104-0.13    c1.72-1.719,2.97-3.88,3.565-6.301h-26.139C325.369,121.13,326.643,123.291,328.334,125.01z M317.609,118.813v-0.104h-26.139    l0.024,0.104l0.028,0.104l0.024,0.13l0.053,0.104l0.027,0.104l0.024,0.13l0.025,0.104l0,0l0.053,0.104l0.027,0.104l0.053,0.13    l0.024,0.104l0.025,0.105l0.052,0.104l0.053,0.104l0.024,0.105l0.053,0.129l0.028,0.105l0.053,0.104l0.049,0.104l0.028,0.104    l0.053,0.104l0.049,0.104l0.053,0.104l0,0l0.053,0.104l0.053,0.104l0.053,0.104l0,0l0.053,0.104l0,0l0.049,0.104l0,0l0.053,0.104    l0,0l0.053,0.105l0.053,0.078l0,0l0.053,0.104l0.053,0.105l0.077,0.104l0,0l0.053,0.104l0.053,0.078l0.049,0.104l0.081,0.104l0,0    l0.052,0.104l0.05,0.078l0.08,0.104l0.05,0.078l0.08,0.104l0.053,0.104l0,0l0.077,0.078l0.053,0.104l0.077,0.078l0,0l0.077,0.105    l0,0l0.053,0.078l0.077,0.104l0.077,0.078l0,0l0.053,0.078l0.081,0.104l0.077,0.078l0.077,0.078l0.077,0.104l0.053,0.078    l0.077,0.078l0,0l0.081,0.078l0.077,0.104l0.077,0.078l0,0l0.077,0.078l0.081,0.078l0.077,0.079    c2.446,2.447,5.832,3.957,9.528,3.957h0.183l0,0l0.154-0.026h0.027h0.155l0,0h0.157h0.024l0.158-0.026l0,0h0.154h0.028    l0.154-0.025h0.028h0.13h0.024l0.13-0.026h0.053h0.13l0.028-0.026h0.13l0.024-0.025h0.13h0.053l0.13-0.026h0.027l0.13-0.026    l0.05-0.025h0.105l0.053-0.026h0.129l0.025-0.026l0.133-0.025h0.049l0.105-0.026l0.053-0.026l0.105-0.025h0.049l0.105-0.026    l0.077-0.026l0.081-0.025h0.077l0.077-0.026l0.077-0.026l0.081-0.025l0.077-0.026l0.077-0.026l0.077-0.025l0.081-0.026    l0.076-0.026h0.078l0.077-0.052h0.081l0.076-0.052l0.078-0.026l0.076-0.026l0.081-0.025l0.077-0.025l0.053-0.027l0.102-0.025    l0.053-0.025l0.105-0.053l0.154-0.053l0.053-0.025l0.081-0.053h0.049l0.105-0.051l0.053-0.027l0.104-0.051h0.025l0.105-0.053    l0.053-0.025l0.231-0.131h0.028l0.023-0.025l0.105-0.053h0.025l0.129-0.078h0.029l0.102-0.078h0.027l0.13-0.078l0,0l0.26-0.156    h0.028l0.13-0.104l0,0l0.13-0.078l0,0l0.13-0.078l0,0l0.26-0.183h0.024l0.105-0.078l0.024-0.026l0.105-0.078h0.028l0.102-0.104    h0.027l0.102-0.078l0.029-0.025l0.102-0.078h0.027l0.078-0.105h0.027l0.102-0.078l0.028-0.025l0.103-0.078l0.027-0.025    l0.077-0.078l0.053-0.027l0.077-0.078l0.025-0.025l0.104-0.078l0.028-0.053l0.077-0.051l0.053-0.053l0.049-0.052l0.053-0.052    l0.081-0.078l0.154-0.156c0.625-0.651,1.225-1.354,1.72-2.109l0,0l0.183-0.286l0,0l0.049-0.104l0,0l0.08-0.078v-0.025l0.053-0.078    l0,0l0.05-0.104l0,0l0.053-0.105l0,0l0.052-0.104l0,0l0.053-0.078v-0.027l0.078-0.078l0,0l0.053-0.104l0,0l0.053-0.104l0,0    l0.053-0.104l0,0l0.049-0.104l0,0l0.053-0.104l0,0l0.027-0.104l0,0l0.053-0.104l0,0l0.049-0.104l0,0l0.053-0.104l0,0l0.053-0.104    l0,0l0.025-0.104l0,0l0.053-0.104l0,0l0.21-0.547l0,0l0.024-0.105h0.028l0.024-0.104v-0.025l0.024-0.104h0.028l0.154-0.547l0,0    l0.081-0.339H317.609z M261.713,125.01c0.572,0.572,1.197,1.094,1.85,1.562h0.024l0.26,0.183l0,0l0.264,0.156l0,0l0.13,0.104    h0.024l0.39,0.234h0.028l0.26,0.156h0.024l0.105,0.053l0.024,0.025h0.027l0.235,0.131l0.024,0.025l0.13,0.053h0.028l0.102,0.051    l0.053,0.027l0.105,0.051h0.053l0.077,0.053l0.053,0.025l0.102,0.053h0.053l0.105,0.053l0.053,0.025l0.102,0.025l0.053,0.027    l0.077,0.025l0.081,0.025l0.077,0.026l0.077,0.026l0.077,0.052h0.08l0.078,0.052h0.077l0.077,0.026l0.08,0.026l0.077,0.025    l0.077,0.026l0.081,0.026l0.077,0.025l0.077,0.026l0.077,0.026h0.081l0.077,0.025l0.077,0.026l0.105,0.026h0.053l0.102,0.025    l0.053,0.026l0.105,0.026h0.053l0.102,0.025l0.053,0.026h0.13l0.053,0.026h0.104l0.053,0.025l0.13,0.026h0.024l0.13,0.026h0.053    h0.105l0.049,0.025h0.134l0.024,0.026h0.13h0.053l0.13,0.026h0.024h0.13h0.028l0.154,0.025h0.028h0.13h0.024l0.158,0.026h0.024    h0.157l0,0h0.155h0.027l0.154,0.026l0,0h0.183c3.699,0,7.082-1.51,9.504-3.957c1.717-1.719,2.966-3.88,3.565-6.301h-26.139    l0.028,0.104l0,0l0.024,0.104l0.024,0.13l0.028,0.104l0,0l0.053,0.104l0.024,0.13l0.028,0.104l0.024,0.104l0.053,0.104l0,0    l0.024,0.13l0,0l0.053,0.104l0,0l0.024,0.105l0,0l0.053,0.104l0.028,0.104l0.053,0.105l0.049,0.129l0.028,0.105l0,0l0.053,0.104    l0.053,0.104l0.024,0.104l0.053,0.104l0,0l0.053,0.104l0.049,0.104l0.053,0.104l0.053,0.104l0.027,0.104h0.025l0.053,0.104l0,0    l0.052,0.104l0.05,0.104l0,0l0.053,0.105l0.053,0.078l0,0l0.052,0.104l0.053,0.105l0.053,0.104l0,0l0.077,0.104l0.053,0.078l0,0    l0.053,0.104l0,0l0.049,0.104h0.028l0.053,0.104l0.049,0.078l0,0l0.081,0.104l0.053,0.078l0.077,0.104l0.053,0.104l0,0    l0.077,0.078l0.053,0.104l0.077,0.078l0.077,0.105l0.053,0.078l0.077,0.104l0.081,0.078l0.049,0.078l0.081,0.104l0.077,0.078    l0.077,0.078l0.077,0.104l0.081,0.078l0.052,0.078l0.077,0.078l0.078,0.104l0,0l0.077,0.078l0.08,0.078l0.077,0.078    L261.713,125.01z M233.153,128.082c1.484,0.572,3.099,0.885,4.766,0.885c1.067,0,2.081-0.131,3.046-0.365h0.102l0.053-0.025    l0.183-0.053h0.077l0.081-0.025l0.155-0.053l0.077-0.025l0.081-0.026l0.154-0.052h0.081l0.077-0.053h0.077l0.077-0.052h0.081    l0.077-0.052h0.078l0.077-0.053l0.053-0.025l0.105-0.025l0.053-0.027l0.102-0.025l0.053-0.025l0.105-0.053h0.053l0.102-0.053    l0.028-0.025l0.102-0.053h0.053l0.105-0.051l0.053-0.027l0.102-0.051h0.028l0.13-0.053l0.024-0.025l0.105-0.053l0.024-0.025    l0.134-0.053h0.024l0.105-0.078h0.025l0.13-0.078h0.028l0.102-0.078h0.028l0.13-0.078l0,0l0.13-0.078l0,0l0.154-0.078l0,0    l0.13-0.078v-0.025l0.133-0.078l0,0l0.13-0.078l0,0l0.13-0.078l0.024-0.026l0.105-0.078h0.024l0.105-0.078l0.024-0.026    l0.105-0.078h0.024l0.105-0.078l0.024-0.025l0.105-0.078l0.235-0.209h0.053l0.077-0.078l0.025-0.025l0.105-0.078l0.028-0.025    l0.102-0.078l0.028-0.027l0.077-0.078l0.053-0.025l0.077-0.078l0.024-0.053l0.081-0.051l0.049-0.053l0.081-0.052l0.025-0.052    l0.077-0.053l0.158-0.182c0.495-0.495,0.962-1.041,1.404-1.641l0,0l0.053-0.078l0,0l0.081-0.104l0,0l0.049-0.104l0,0l0.081-0.078    l0,0l0.053-0.104l0.049-0.078l0,0l0.081-0.104l0,0l0.049-0.104l0.052-0.104l0.081-0.078l0,0l0.049-0.104l0.053-0.104l0.053-0.105    l0.053-0.104l0,0l0.077-0.078l0,0l0.053-0.105l0.053-0.104l0,0l0.052-0.104l0,0l0.049-0.104l0,0l0.053-0.104l0.053-0.104l0,0    l0.028-0.104h0.024l0.025-0.104l0.053-0.104l0.052-0.104l0.053-0.104l0.024-0.104l0.053-0.104l0.053-0.105l0.024-0.129    l0.053-0.105l0.053-0.104l0.028-0.104l0.049-0.105l0.028-0.104l0.024-0.13l0.053-0.104l0.024-0.104l0.028-0.104l0.052-0.13    l0.025-0.104l0.028-0.104l0.025-0.13l0.052-0.104l0.025-0.104H224.85l0.024,0.104l0,0l0.028,0.104l0,0l0.024,0.104l0.028,0.025    l0.024,0.078v0.026l0.024,0.104l0,0l0.028,0.104v0.025l0.024,0.078l0.028,0.026l0.024,0.078v0.025l0.028,0.078v0.026l0.024,0.077    l0.024,0.053l0.028,0.078v0.025l0.024,0.078l0.028,0.027l0.025,0.078v0.025l0.024,0.078l0.028,0.025l0.024,0.078v0.027    l0.028,0.078l0.025,0.051l0.028,0.053l0.025,0.053v0.051l0.024,0.053l0.028,0.052l0.025,0.053l0.028,0.052l0.024,0.052v0.053    l0.053,0.052v0.052l0.025,0.053l0.028,0.052l0.024,0.052l0.028,0.026l0.024,0.078l0.025,0.026l0.028,0.078v0.025l0.102,0.183    v0.025l0.053,0.078l0,0l0.053,0.104l0,0l0.053,0.105l0,0l0.053,0.078v0.025l0.053,0.078l0,0l0.052,0.105l0,0l0.077,0.104    l0.053,0.104l0,0l0.049,0.078l0,0l0.053,0.104l0,0l0.053,0.078l0.028,0.025l0.049,0.078v0.026l0.052,0.052v0.026l0.053,0.078    l0.025,0.026l0.052,0.078l0,0l0.053,0.078l0.028,0.025l0.049,0.078v0.026l0.053,0.052l0.028,0.026l0.049,0.052v0.052l0.053,0.053    l0.028,0.025l0.052,0.053l0.025,0.053l0.024,0.025l0.028,0.053l0.052,0.051l0.025,0.053l0.024,0.025l0.053,0.053l0.028,0.053    l0.025,0.025l0.052,0.053l0.025,0.051l0.028,0.027l0.053,0.051l0.024,0.027l0.053,0.051l0.024,0.027l0.053,0.077l0.028,0.026    l0.024,0.052l0.024,0.025l0.053,0.053l0.081,0.078l0.025,0.025l0.053,0.078h0.024l0.053,0.078h0.024l0.053,0.078h0.028    l0.155,0.157c0.495,0.494,1.018,0.963,1.59,1.379l0.129,0.078l0,0l0.39,0.287h0.028l0.544,0.338l0,0l0.13,0.078h0.028l0.102,0.078    h0.028l0.13,0.078l0,0l0.13,0.078h0.024l0.133,0.078l0,0l0.155,0.078l0,0l0.13,0.078h0.028l0.13,0.053v0.025l0.154,0.053l0,0    l0.13,0.051l0.028,0.027l0.284,0.104v0.025L233.153,128.082L233.153,128.082z M214.125,125.01    c0.544-0.521,1.039-1.119,1.457-1.719h0.024l0.053-0.104l0,0v-0.025l0.13-0.156l0,0l0.053-0.104h0.028l0.049-0.078l0,0    l0.053-0.104l0,0l0.053-0.104h0.028l0.049-0.078v-0.026l0.053-0.078l0,0l0.052-0.104l0,0l0.053-0.104h0.025l0.052-0.105l0,0    l0.053-0.078v-0.025l0.053-0.078l0,0l0.053-0.105l0,0l0.053-0.104l0,0l0.049-0.104l0,0l0.053-0.104l0,0l0.053-0.104l0,0    l0.053-0.104l0,0l0.052-0.104l0,0l0.053-0.104l0,0l0.049-0.104l0,0l0.028-0.104l0,0l0.053-0.104l0,0l0.049-0.104l0,0l0.053-0.104    l0,0l0.028-0.105l0,0l0.053-0.104v-0.025l0.024-0.105l0,0l0.053-0.104l0,0l0.077-0.209l0,0l0.025-0.104h0.028l0.053-0.234l0,0    l0.024-0.104h0.028l0.024-0.104l0,0l0.024-0.13l0,0l0.081-0.209l0,0l0.024-0.13l0,0l0.053-0.208h-26.139l0.024,0.104l0.028,0.104    l0.025,0.13l0.028,0.104l0.053,0.104l0.024,0.13l0.025,0.104l0.052,0.104l0.028,0.104l0.024,0.13l0.053,0.104l0.024,0.105    l0.053,0.104l0.028,0.104l0,0l0.049,0.105l0,0l0.028,0.129h0.024l0.028,0.105l0.052,0.104l0,0l0.049,0.104l0,0l0.028,0.104l0,0    l0.052,0.104l0.049,0.104l0,0l0.053,0.104l0,0l0.053,0.104l0,0l0.052,0.104l0,0l0.053,0.104l0.025,0.104h0.028l0.049,0.104l0,0    l0.052,0.104l0,0l0.105,0.184l0,0l0.053,0.104l0,0l0.053,0.105l0,0l0.049,0.104l0,0l0.134,0.182l0,0l0.049,0.104l0,0l0.053,0.104    h0.028c0.52,0.833,1.12,1.589,1.846,2.292c0.523,0.547,1.095,1.016,1.72,1.457l0,0c0.337,0.261,0.702,0.495,1.095,0.703l0,0    l0.285,0.156l0,0l0.417,0.234l0.154,0.078l0,0l0.158,0.053l0,0l0.129,0.078l0,0l0.155,0.051l0.158,0.078l0,0l0.154,0.053l0,0    l0.158,0.078l0.13,0.053l0,0l0.158,0.051l0,0l0.154,0.053l0,0l0.158,0.052l0.154,0.052l0.158,0.053l0.154,0.052l0.183,0.052    l0.158,0.053l0,0l0.154,0.025l0.158,0.053l0.154,0.025l0.183,0.053l0,0l0.158,0.025l0.154,0.026l0.183,0.026l0.154,0.052    l0.158,0.026h0.183l0.154,0.025l0.183,0.026l0.158,0.026h0.183l0.154,0.025h0.183l0.158,0.026h0.183h0.183l0.154,0.026h0.183    h0.182l0,0l0.155-0.026l0,0h0.182l0,0h0.158h0.024l0.158-0.026l0,0h0.154h0.028l0.13-0.025h0.025h0.158H206l0.13-0.026h0.053h0.13    l0.028-0.026h0.129h0.025l0.13-0.025h0.053l0.129-0.026h0.028l0.13-0.026l0.049-0.025h0.105l0.053-0.026h0.105l0.049-0.026    l0.105-0.025h0.077l0.105-0.026l0.052-0.026l0.105-0.025h0.049l0.105-0.026l0.053-0.026l0.105-0.025h0.077l0.077-0.026    l0.077-0.026l0.081-0.025l0.078-0.026l0.077-0.026l0.077-0.025l0.081-0.026l0.077-0.026h0.077l0.077-0.052h0.081l0.077-0.052    l0.053-0.026l0.102-0.026l0.053-0.025l0.105-0.025l0.052-0.027l0.102-0.025l0.053-0.025l0.105-0.053h0.053l0.077-0.053    l0.053-0.025l0.105-0.025l0.049-0.027l0.105-0.051l0.053-0.027l0.105-0.051h0.025l0.105-0.053l0.053-0.025l0.102-0.053    l0.028-0.025h0.024l0.235-0.131h0.024l0.13-0.078l0,0l0.13-0.078h0.028l0.102-0.078h0.028l0.13-0.078l0,0l0.13-0.078h0.025    l0.263-0.182l0,0l0.13-0.078l0.13-0.078l0.235-0.183h0.024v-0.026l0.13-0.078l0,0l0.13-0.104l0,0l0.13-0.078v-0.025l0.13-0.078    l0,0l0.105-0.105h0.024l0.105-0.078l0.028-0.025l0.102-0.078l0.028-0.025l0.077-0.078l0.025-0.027l0.105-0.078l0.025-0.025    l0.081-0.078l0.024-0.025l0.105-0.078l0.024-0.027l0.077-0.077l0.028-0.052l0.105-0.078L214.125,125.01z M197.798,134.147    c-2.73-1.017-5.205-2.604-7.208-4.608c-0.99-0.989-1.877-2.057-2.632-3.229l-0.025,0.052l-0.024,0.026v0.026l-0.053,0.052    l-0.028,0.053l-0.077,0.104l-0.025,0.053l-0.053,0.078l-0.028,0.052l0,0l-0.053,0.052l-0.024,0.053l-0.053,0.052v0.026    l-0.024,0.025l-0.028,0.053l-0.049,0.052l-0.028,0.052l-0.024,0.026l-0.053,0.077l-0.053,0.053l-0.024,0.053l-0.053,0.051    l-0.028,0.053l-0.049,0.053l-0.028,0.025v0.025l-0.052,0.053l-0.025,0.053l-0.053,0.051v0.027l-0.052,0.025l-0.025,0.053    l-0.053,0.051l-0.024,0.053l0,0l-0.053,0.053l-0.028,0.051l-0.053,0.053l-0.024,0.025h-0.025l-0.028,0.053l-0.053,0.052    l-0.024,0.052l-0.025,0.026l-0.028,0.026l-0.053,0.052l-0.024,0.052l-0.053,0.053l0,0l-0.024,0.052l-0.053,0.052l-0.053,0.026    l-0.028,0.052l0,0l-0.049,0.053l-0.053,0.052l-0.028,0.052h-0.025l-0.024,0.053l-0.053,0.052l-0.028,0.026l-0.053,0.052    l-0.049,0.052l-0.028,0.053l-0.053,0.051l-0.024,0.027l-0.025,0.025l-0.052,0.025l-0.028,0.053l-0.053,0.053h-0.024l-0.024,0.051    l-0.053,0.053l-0.028,0.025l-0.049,0.053l-0.183,0.156l0,0l-0.158,0.156v0.025l-0.155,0.156h-0.028l-0.154,0.156h-0.028    l-0.154,0.156h-0.028l-0.13,0.156h-0.052l-0.13,0.131l-0.025,0.025l-0.158,0.131l-0.183,0.156l-0.049,0.025l-0.129,0.104    l-0.053,0.053l-0.13,0.104l-0.053,0.027l-0.13,0.104l-0.053,0.053l-0.158,0.104l-0.053,0.025l-0.13,0.105l-0.049,0.051    l-0.133,0.078l-0.077,0.053l-0.13,0.078l-0.053,0.052l-0.129,0.078l-0.078,0.052l-0.13,0.079l-0.077,0.052l-0.105,0.078    l-0.077,0.052l-0.13,0.078l-0.081,0.053l-0.102,0.052l-0.105,0.078l-0.105,0.052l-0.102,0.053l-0.105,0.052l-0.105,0.078    l-0.102,0.052l-0.105,0.052l-0.105,0.053l-0.102,0.078l-0.105,0.025l-0.13,0.078l-0.077,0.053l-0.133,0.051l-0.077,0.053    l-0.13,0.053l-0.077,0.051l-0.158,0.053l-0.049,0.027l-0.158,0.078l-0.052,0.025l-0.155,0.078l-0.081,0.025l-0.154,0.053    l-0.053,0.025l-0.183,0.078l-0.053,0.026l-0.154,0.052l-0.053,0.026l-0.182,0.078H178.3l-0.207,0.104l-0.183,0.053l-0.053,0.025    l-0.183,0.053l-0.024,0.025l-0.21,0.053l-0.025,0.025l-0.207,0.053h-0.028l-0.207,0.078h-0.028l-0.207,0.052v0.026l-0.235,0.052    l0,0l-0.232,0.052l0,0l-0.235,0.052v0.026l-0.235,0.052h-0.024l-0.21,0.053h-0.025l-0.207,0.053h-0.028l-0.207,0.025l-0.028,0.025    l-0.207,0.027l-0.053,0.025l-0.182,0.025h-0.053l-0.207,0.027l-0.053,0.025l-0.183,0.025h-0.053l-0.179,0.027h-0.081l-0.183,0.025    h-0.049l-0.183,0.025h-0.081l-0.154,0.027h-0.077l-0.183,0.025h-0.081l-0.155,0.025h-0.105h-0.154h-0.081l-0.154,0.027h-0.105    h-0.154h-0.105h-0.129v80.028h199.265v-80.028H370.9h-0.182h-0.053h-0.207h-0.053h-0.207l-0.053-0.027h-0.183h-0.077l-0.183-0.025    h-0.081h-0.178l-0.053-0.025h-0.184l-0.076-0.027h-0.184l-0.053-0.025h-0.182l-0.077-0.025l-0.158-0.027h-0.077l-0.183-0.025    h-0.077l-0.158-0.025l-0.077-0.027l-0.157-0.025h-0.102l-0.158-0.053h-0.078l-0.157-0.025l-0.077-0.025l-0.154-0.027l-0.105-0.025    l-0.13-0.027l-0.105-0.025l-0.13-0.025l-0.105-0.026l-0.13-0.052l-0.102-0.026l-0.13-0.025l-0.105-0.026l-0.129-0.026    l-0.131-0.025l-0.105-0.053l-0.129-0.025l-0.105-0.053l-0.13-0.025l-0.103-0.026l-0.104-0.052l-0.13-0.026l-0.105-0.052    l-0.13-0.026l-0.105-0.052l-0.102-0.026l-0.13-0.052l-0.105-0.026l-0.13-0.052l-0.104-0.053l-0.105-0.025l-0.102-0.053    l-0.131-0.052l-0.105-0.026l-0.129-0.077l-0.078-0.026l-0.129-0.052l-0.081-0.053l-0.154-0.051l-0.077-0.027l-0.134-0.078    l-0.077-0.025l-0.154-0.078l-0.053-0.027l-0.158-0.078l-0.076-0.025l-0.131-0.078l-0.076-0.025l-0.131-0.078l-0.08-0.053    l-0.131-0.078l-0.076-0.025l-0.131-0.078l-0.076-0.026l-0.131-0.104l-0.08-0.026l-0.13-0.078l-0.077-0.052l-0.13-0.078    l-0.053-0.026l-0.154-0.104l-0.053-0.025l-0.157-0.104l-0.053-0.026l-0.154-0.104l-0.025-0.025l-0.158-0.104l-0.053-0.026    l-0.154-0.104l-0.027-0.025l-0.154-0.105l-0.053-0.025l-0.158-0.131l-0.024-0.025l-0.158-0.104l-0.024-0.027l-0.154-0.129h-0.028    l-0.183-0.131l-0.024-0.025l-0.158-0.131l-0.024-0.025l-0.158-0.13h-0.024l-0.157-0.157h-0.025l-0.158-0.156h-0.023l-0.154-0.156    l0,0l-0.184-0.156l0,0l-0.182-0.156l0,0l-0.158-0.156l0,0l-0.183-0.182l0,0l-0.154-0.156l-0.053-0.053l-0.053-0.025L357,129.408    l-0.053-0.051l0,0l-0.053-0.053l-0.053-0.053l-0.024-0.025l-0.028-0.025l-0.024-0.027l-0.053-0.051l-0.052-0.053l-0.025-0.052l0,0    l-0.053-0.052l-0.053-0.026l-0.024-0.052l-0.028-0.026l-0.023-0.026l-0.053-0.052l-0.025-0.052l-0.053-0.053l0,0l-0.053-0.052    l-0.024-0.026l-0.052-0.052l-0.029-0.052h-0.023l-0.029-0.053l-0.049-0.052l-0.027-0.052l-0.025-0.026l-0.027-0.026l-0.049-0.052    l-0.029-0.052l-0.052-0.026v-0.026l-0.024-0.025l-0.053-0.053l-0.053-0.051l-0.025-0.053l0,0l-0.052-0.053l-0.028-0.051    l-0.049-0.053l-0.028-0.025v-0.027l-0.053-0.051l-0.049-0.053l-0.028-0.053l0,0l-0.024-0.051l-0.053-0.053l-0.028-0.053    l-0.049-0.051l0,0l-0.053-0.053l-0.028-0.053l-0.024-0.051l-0.024-0.026l-0.028-0.026l-0.024-0.052l-0.053-0.052l-0.028-0.053l0,0    l-0.049-0.052l-0.028-0.052l-0.052-0.053l-0.025-0.052l0,0l-0.053-0.052l-0.024-0.053l-0.028-0.052l-0.024-0.026l-0.028-0.025    l-0.023-0.078l-0.053-0.053l-0.025-0.052l0,0l-0.027-0.053l-0.05-0.052l-0.028,0.052l-0.023,0.053l0,0l-0.053,0.052l-0.029,0.053    l-0.049,0.078v0.025l-0.027,0.026l-0.025,0.052l-0.053,0.053l-0.027,0.052h-0.025l-0.023,0.052l-0.029,0.053l-0.052,0.052    l-0.024,0.052l0,0l-0.025,0.053l-0.053,0.052l-0.027,0.052l-0.025,0.026l-0.027,0.026l-0.024,0.051l-0.053,0.053l-0.024,0.053    h-0.028l-0.024,0.051l-0.025,0.053l-0.052,0.053l-0.028,0.051l0,0l-0.053,0.053l-0.024,0.053l-0.053,0.051l-0.024,0.027v0.025    l-0.053,0.053l-0.053,0.051l-0.024,0.053l0,0l-0.053,0.053l-0.028,0.051l-0.049,0.053l-0.028,0.025v0.026l-0.053,0.026    l-0.049,0.052l-0.028,0.052l-0.024,0.026l-0.028,0.026l-0.024,0.052l-0.053,0.052l-0.052,0.053l0,0l-0.025,0.052l-0.053,0.052    l-0.053,0.026l-0.024,0.052l0,0l-0.052,0.053l-0.053,0.052l-0.025,0.052l-0.027,0.026l-0.025,0.026l-0.053,0.052l-0.027,0.026    l-0.049,0.052l0,0l-0.053,0.052l-0.029,0.053l-0.049,0.051l-0.027,0.027l-0.025,0.025l-0.053,0.025l-0.027,0.053l-0.049,0.053    h-0.028l-0.024,0.051l-0.053,0.053l-0.025,0.025l-0.053,0.053c-3.594,3.592-8.566,5.807-14.033,5.807h-0.26l0,0h-0.26l0,0h-0.236    h-0.023l-0.235-0.027h-0.024h-0.211h-0.024l-0.235-0.025h-0.024l-0.211-0.025h-0.052h-0.207l-0.025-0.027h-0.211l-0.053-0.025    l-0.178-0.025h-0.053l-0.211-0.027h-0.049l-0.184-0.025h-0.052l-0.183-0.025l-0.077-0.027l-0.183-0.025h-0.053l-0.183-0.053    h-0.077l-0.158-0.051h-0.076l-0.158-0.027l-0.078-0.025l-0.154-0.027l-0.08-0.025l-0.154-0.052h-0.105l-0.13-0.052l-0.105-0.026    l-0.13-0.025l-0.102-0.026l-0.13-0.026l-0.105-0.052l-0.13-0.026l-0.105-0.025l-0.129-0.053l-0.105-0.025l-0.103-0.026    l-0.13-0.052l-0.105-0.026l-0.129-0.052l-0.105-0.026l-0.105-0.052l-0.102-0.026l-0.131-0.052l-0.104-0.026l-0.13-0.052    l-0.105-0.053l-0.13-0.052l-0.077-0.026l-0.13-0.052l-0.104-0.026l-0.131-0.077l-0.076-0.026l-0.131-0.052l-0.08-0.053    l-0.154-0.051l-0.078-0.027l-0.129-0.078l-0.081-0.025l-0.154-0.078l-0.053-0.027l-0.155-0.078l-0.052-0.025l-0.158-0.078    l-0.053-0.025l-0.154-0.078l-0.053-0.027l-0.157-0.104l-0.05-0.025l-0.183-0.078l-0.027-0.026l-0.154-0.104l-0.053-0.026    l-0.158-0.078l-0.049-0.026l-0.158-0.104l-0.025-0.026l-0.182-0.104l-0.028-0.025l-0.183-0.104h-0.024l-0.183-0.131l0,0    l-0.183-0.13h-0.024l-0.183-0.13l0,0l-0.183-0.156l-0.207-0.131l-0.182-0.129l0,0l-0.184-0.156h-0.027l-0.154-0.131h-0.028    l-0.155-0.156h-0.027l-0.154-0.13l-0.028-0.025l-0.154-0.131l-0.024-0.026l-0.158-0.13l-0.024-0.026l-0.158-0.13l-0.024-0.026    l-0.158-0.13l-0.024-0.026l-0.13-0.13l-0.053-0.026l-0.129-0.129l-0.029-0.053l-0.129-0.104l-0.053-0.053l-0.183-0.156    c-0.491-0.494-0.962-1.041-1.403-1.588h-0.029l-0.571-0.781l0,0c-0.207-0.286-0.414-0.572-0.597-0.859l-0.523,0.756l-0.024,0.052    l-0.052,0.052l-0.155,0.209l0,0l-0.157,0.207l-0.025,0.053l-0.053,0.053l-0.027,0.051l-0.025,0.027l-0.023,0.025l-0.053,0.053    l-0.053,0.104h-0.028l-0.313,0.391l-0.05,0.052l-0.052,0.052l-0.211,0.234l-0.024,0.053l-0.053,0.052l-0.053,0.052l0,0    l-0.024,0.053l-0.053,0.052l-0.053,0.026l-0.024,0.052h-0.027l-0.025,0.052l-0.053,0.053l-0.053,0.051l-0.024,0.027v0.025    l-0.052,0.025l-0.053,0.053l-0.053,0.053l0,0l-0.025,0.051l-0.053,0.053l-0.053,0.025l-0.023,0.053h-0.029    c-1.119,1.119-2.368,2.082-3.72,2.916l-0.028,0.026l-0.571,0.338l-0.024,0.026l-0.601,0.313l-0.053,0.025l-0.154,0.078    l-0.053,0.025l-0.157,0.078l-0.053,0.027l-0.18,0.078l-0.053,0.025l-0.158,0.078l-0.417,0.183l-0.077,0.026l-0.154,0.077    l-0.081,0.026l-0.13,0.052l-0.313,0.131l-0.129,0.052l-0.236,0.078l-0.102,0.026l-0.105,0.052l-0.129,0.026l-0.105,0.052    l-0.102,0.026l-0.131,0.052l-0.105,0.026l-0.129,0.025l-0.105,0.053l-0.105,0.025l-0.13,0.026l-0.102,0.052l-0.13,0.026    l-0.105,0.026l-0.13,0.025l-0.104,0.026l-0.155,0.052h-0.081l-0.154,0.052l-0.076,0.025l-0.158,0.027l-0.078,0.025l-0.157,0.027    h-0.077l-0.183,0.051h-0.053l-0.183,0.053h-0.077l-0.154,0.025l-0.081,0.027l-0.179,0.025h-0.053l-0.183,0.025h-0.053    l-0.207,0.027h-0.053l-0.183,0.025l-0.053,0.025h-0.207l-0.027,0.027h-0.235h-0.024l-0.207,0.025h-0.028l-0.235,0.025h-0.024    h-0.235l0,0l-0.231,0.027h-0.028h-0.234l0,0h-0.26l0,0h-0.26h-0.26h-0.235h-0.26l-0.26-0.027h-0.26l-0.235-0.025l-0.26-0.025    l-0.263-0.027l-0.231-0.025l-0.264-0.025l-0.231-0.027l-0.264-0.025l-0.231-0.053l-0.26-0.025l-0.234-0.053l-0.235-0.051    l-0.235-0.053l-0.26-0.053l-0.235-0.052l-0.231-0.078l-0.235-0.052l-0.234-0.078l-0.235-0.052l-0.235-0.078l-0.231-0.078    l-0.235-0.078l-0.235-0.078l-0.235-0.078l0,0l-0.207-0.078l0,0l-0.234-0.104l-0.232-0.078l-0.21-0.104l-0.235-0.078l0,0    l-0.207-0.104l-0.235-0.105l-0.207-0.104l0,0l-0.207-0.105l-0.21-0.104h-0.025l-0.207-0.104l-0.21-0.131l-0.207-0.104l0,0    l-0.207-0.13l0,0l-0.211-0.104v-0.026l-0.207-0.104l-0.211-0.131l-0.179-0.13l0,0l-0.21-0.131l0,0l-0.208-0.13l0,0l-0.182-0.13    l0,0l-0.207-0.131v-0.025l-0.183-0.131l0,0l-0.211-0.129l0,0l-0.183-0.156l0,0l-0.183-0.131v-0.025l-0.179-0.131h-0.028    l-0.154-0.155h-0.028l-0.154-0.157h-0.027l-0.155-0.156h-0.027l-0.154-0.156l0,0l-0.183-0.156l0,0l-0.183-0.156l0,0l-0.158-0.156    l-0.024-0.025l-0.154-0.156l0,0l-0.183-0.156l0,0l-0.028-0.053l-0.053-0.051l-0.049-0.027l-0.028-0.051h-0.024l-0.028-0.053    l-0.053-0.053l-0.049-0.051h-0.028l-0.024-0.027l-0.028-0.051l-0.052-0.053l-0.05-0.052l0,0l-0.028-0.052l-0.052-0.053    l-0.05-0.025l-0.028-0.053l0,0l-0.052-0.052l-0.053-0.052l-0.05-0.053l0,0l-0.027-0.052l-0.053-0.052l-0.05-0.053l-0.027-0.025    l0,0l-0.053-0.053l-0.024-0.052l-0.053-0.052l-0.024-0.026l-0.028-0.026l-0.024-0.052l-0.053-0.052l-0.053-0.053l0,0l-0.024-0.051    l-0.053-0.053l-0.028-0.053l-0.049-0.025v-0.025l-0.028-0.053l-0.053-0.053l-0.024-0.025l-0.024-0.025l-0.028-0.027l-0.053-0.078    l-0.024-0.025l-0.053-0.053v-0.025l-0.024-0.025l-0.053-0.053l-0.028-0.053l-0.024-0.051h-0.028l-0.024-0.053l-0.053-0.053    l-0.024-0.051l-0.028-0.026l-0.024-0.026l-0.024-0.052l-0.053-0.052l-0.028-0.053v-0.025l-0.053-0.053l-0.024-0.052l-0.024-0.052    l-0.028-0.026l-0.024-0.026l-0.028-0.052l-0.049-0.052l-0.028-0.053l-0.024-0.025v-0.026l-0.053-0.052l-0.027-0.053l-0.05-0.052    l-0.027-0.053l-0.025-0.052l-0.053,0.052l-0.052,0.104l-0.053,0.053l-0.053,0.104h-0.024l-0.025,0.053l-0.052,0.052l-0.028,0.052    v0.026l-0.024,0.026l-0.053,0.052l-0.024,0.078l-0.053,0.052l0,0l-0.028,0.053l-0.049,0.052l-0.053,0.078l-0.028,0.026    l-0.024,0.051l-0.053,0.053l-0.024,0.053l0,0l-0.053,0.051l-0.028,0.053l-0.049,0.053l-0.028,0.051l0,0l-0.053,0.053l-0.024,0.053    l-0.053,0.051l-0.024,0.027v0.025l-0.053,0.053l-0.028,0.051l-0.049,0.053l0,0l-0.028,0.053l-0.053,0.025l-0.053,0.053    l-0.024,0.051l0,0l-0.053,0.053l-0.024,0.052l-0.053,0.052l-0.024,0.026l-0.028,0.026l-0.024,0.052l-0.053,0.052l-0.053,0.053l0,0    l-0.024,0.052l-0.053,0.026l-0.027,0.052l-0.05,0.052l0,0l-0.053,0.053l-0.027,0.052l-0.053,0.052l-0.024,0.026l-0.025,0.026    l-0.027,0.025l-0.053,0.053l-0.053,0.052l0,0l-0.05,0.052l-0.027,0.053l-0.053,0.051l-0.024,0.027l-0.024,0.025l-0.053,0.025    l-0.028,0.053l-0.053,0.053h-0.024l-0.024,0.051l-0.028,0.053l-0.053,0.025l-0.049,0.053c-3.594,3.592-8.567,5.807-14.035,5.807    h-0.26l0,0h-0.26l0,0h-0.234h-0.024l-0.235-0.027l0,0h-0.235h-0.024l-0.235-0.025h-0.028l-0.207-0.025h-0.024h-0.235l-0.024-0.027    h-0.21l-0.053-0.025l-0.183-0.025h-0.05l-0.21-0.027h-0.053l-0.183-0.025h-0.049l-0.183-0.025l-0.081-0.027l-0.154-0.025h-0.077    l-0.183-0.053h-0.053l-0.183-0.051h-0.077l-0.157-0.027l-0.077-0.025l-0.158-0.027l-0.077-0.025l-0.154-0.052h-0.081l-0.154-0.052    l-0.105-0.026l-0.13-0.025l-0.102-0.026l-0.134-0.026l-0.102-0.052l-0.13-0.026l-0.105-0.025l-0.105-0.053l-0.129-0.025    l-0.103-0.026l-0.133-0.052l-0.102-0.026l-0.105-0.052l-0.13-0.026l-0.105-0.052l-0.102-0.026l-0.13-0.052l-0.105-0.026    l-0.13-0.052l-0.077-0.053l-0.134-0.052l-0.102-0.026l-0.13-0.052l-0.081-0.026l-0.154-0.077l-0.077-0.026l-0.13-0.052    l-0.08-0.053l-0.154-0.051l-0.053-0.027l-0.207-0.104l-0.158-0.078l-0.077-0.027l-0.158-0.078l-0.049-0.025l-0.158-0.078    l-0.053-0.025l-0.154-0.078l-0.053-0.027l-0.158-0.104l-0.049-0.025l-0.158-0.078l-0.052-0.026l-0.155-0.104l-0.053-0.026    l-0.157-0.078l-0.024-0.026l-0.183-0.104l-0.024-0.026l-0.183-0.104l-0.028-0.025l-0.183-0.104l0,0l-0.207-0.131l0,0l-0.183-0.13    h-0.024l-0.365-0.286l-0.21-0.131l0,0l-0.183-0.129l0,0l-0.361-0.287h-0.028l-0.154-0.156h-0.028l-0.154-0.13l-0.028-0.025    l-0.154-0.131l-0.028-0.026l-0.154-0.13l-0.028-0.026l-0.154-0.13l-0.024-0.026l-0.133-0.13l-0.05-0.026l-0.13-0.13l-0.028-0.026    l-0.129-0.129l-0.053-0.053l-0.13-0.104l-0.053-0.053l-0.154-0.156c-0.73-0.729-1.379-1.484-2.004-2.316l-0.028-0.053l0,0    l-0.39-0.572h-0.028l-0.183-0.287l-0.024,0.052l-0.025,0.026l-0.028,0.026l-0.024,0.052l-0.028,0.053l-0.049,0.078l0,0    l-0.028,0.052l-0.053,0.052l-0.024,0.053l-0.028,0.052l0,0l-0.049,0.052l-0.028,0.053l-0.052,0.052l-0.025,0.026v0.025    l-0.053,0.053l-0.024,0.052l-0.053,0.052v0.026l-0.028,0.026l-0.049,0.051l-0.028,0.053l-0.025,0.053l-0.052,0.051l-0.053,0.053    l-0.025,0.053l-0.028,0.025l-0.024,0.025l-0.028,0.053l-0.049,0.053l-0.028,0.051l-0.024,0.027l-0.028,0.025l-0.024,0.053    l-0.053,0.051l-0.024,0.053l-0.053,0.053l-0.028,0.051l-0.049,0.053l-0.028,0.025h-0.024l-0.028,0.053l-0.052,0.052l-0.025,0.052    l-0.024,0.026l-0.028,0.026l-0.052,0.052l-0.025,0.052l-0.052,0.053l0,0l-0.053,0.052l-0.025,0.052l-0.052,0.026l-0.025,0.052    h-0.028l-0.025,0.053l-0.052,0.052l-0.025,0.052h-0.028l-0.024,0.053l-0.053,0.052l-0.053,0.026l-0.024,0.052l-0.053,0.052    l-0.053,0.053l-0.024,0.051l-0.053,0.027v0.025l-0.053,0.025l-0.053,0.053l-0.024,0.053h-0.028l-0.024,0.051l-0.053,0.053    l-0.052,0.025l-0.025,0.053c-1.12,1.119-2.369,2.082-3.724,2.916l-0.028,0.026l-0.179,0.104l-0.417,0.234l-0.028,0.026    l-0.596,0.313l-0.053,0.025l-0.158,0.078l-0.049,0.025l-0.158,0.078l-0.053,0.027l-0.154,0.078l-0.077,0.025l-0.133,0.053    l-0.077,0.053l-0.154,0.051l-0.211,0.104l-0.077,0.026l-0.13,0.052l-0.105,0.052l-0.13,0.052l-0.077,0.026l-0.13,0.052    l-0.105,0.053l-0.13,0.052l-0.207,0.078l-0.105,0.026l-0.129,0.052l-0.105,0.026l-0.13,0.052l-0.102,0.026l-0.105,0.052    l-0.13,0.026l-0.105,0.025l-0.13,0.053l-0.105,0.025l-0.13,0.026l-0.102,0.026l-0.133,0.052l-0.102,0.026l-0.13,0.025    l-0.105,0.026l-0.13,0.052h-0.105l-0.155,0.052l-0.077,0.025l-0.158,0.027l-0.077,0.025l-0.158,0.027h-0.077l-0.158,0.051h-0.077    l-0.183,0.053h-0.053l-0.179,0.025h-0.081l-0.183,0.053h-0.049l-0.183,0.025h-0.053l-0.21,0.027h-0.024l-0.207,0.025l-0.053,0.025    h-0.21l-0.025,0.027h-0.207h-0.053l-0.207,0.025h-0.028l-0.235,0.025h-0.024h-0.207h-0.028l-0.235,0.027h-0.024h-0.235l0,0h-0.26    l0,0h-0.26h-0.26l0,0h-0.235l0,0h-0.26l0,0l-0.26-0.027l0,0h-0.263l0,0l-0.495-0.051l0,0c-1.25-0.105-2.471-0.34-3.643-0.678    h-0.028c-0.284-0.078-0.596-0.183-0.909-0.286l0,0l-0.235-0.078l0,0l-0.207-0.078h-0.028l-0.884-0.364h-0.025l-0.653-0.287l0,0    l-0.207-0.104H229.3l-0.179-0.105h-0.028l-0.207-0.104l0,0l-0.211-0.104v-0.027l-0.207-0.104l0,0l-0.207-0.104v-0.026    l-0.625-0.338v-0.026l-0.21-0.104l0,0l-0.183-0.13h-0.024l-0.783-0.547l0,0c-0.909-0.625-1.769-1.354-2.551-2.135l-0.155-0.182    l-0.052-0.053l-0.025-0.025l-0.053-0.053l-0.028-0.025l0,0l-0.049-0.053l-0.081-0.104l-0.049-0.026l0,0l-0.028-0.052l-0.053-0.053    l-0.024-0.025l-0.053-0.053l0,0l-0.053-0.052l-0.105-0.104v-0.025l-0.049-0.053L223,128.576l-0.052-0.053l-0.025-0.025v-0.026    l-0.053-0.052l-0.024-0.053l-0.053-0.025l-0.028-0.026v-0.026l-0.049-0.052l-0.028-0.052l-0.053-0.026l-0.024-0.026v-0.025    l-0.078-0.104l-0.052-0.053l0,0l-0.078-0.078l-0.028-0.053l-0.024-0.051h-0.028l-0.024-0.053l-0.024-0.025l-0.053-0.053    l-0.081-0.104l-0.024-0.053l-0.105-0.131l-0.049-0.051l-0.028-0.053l-0.024-0.052h-0.028l-0.025-0.052l-0.028-0.053l-0.025-0.052    l-0.052-0.026v-0.025l-0.025-0.026l-0.028-0.052l-0.053-0.053l-0.024-0.052l0,0l-0.025-0.052l-0.052-0.053l-0.028-0.052    l-0.024-0.052l0,0l-0.053-0.053l-0.024-0.052l-0.028-0.052l-0.102-0.131l-0.028,0.052l-0.053,0.053l0,0l-0.024,0.052l-0.053,0.053    l-0.024,0.052l-0.028,0.052l0,0l-0.052,0.053l-0.025,0.052l-0.052,0.052v0.026l-0.025,0.052l-0.028,0.053l-0.049,0.052    l-0.028,0.052l0,0l-0.053,0.053l-0.025,0.052l-0.052,0.052l-0.025,0.026v0.026l-0.052,0.051l-0.028,0.053l-0.049,0.053l0,0    l-0.028,0.051l-0.053,0.053l-0.024,0.053l-0.053,0.051l0,0l-0.024,0.053l-0.053,0.053l-0.028,0.051l-0.024,0.027l-0.028,0.025    l-0.025,0.053l-0.053,0.051l-0.052,0.053l0,0l-0.025,0.053l-0.053,0.051l-0.024,0.027l-0.053,0.051l0,0l-0.052,0.053l-0.025,0.052    l-0.053,0.052l-0.028,0.026v0.026l-0.049,0.052l-0.053,0.052l-0.028,0.053h-0.024l-0.028,0.052l-0.049,0.026l-0.028,0.052    l-0.053,0.052l0,0l-0.049,0.053l-0.028,0.052l-0.053,0.052l-0.024,0.026l-0.028,0.026l-0.024,0.025l-0.053,0.053l-0.052,0.052l0,0    l-0.025,0.052l-0.053,0.053l-0.052,0.051l-0.025,0.027l-0.028,0.025l-0.025,0.025l-0.052,0.053l-0.053,0.053l0,0l-0.053,0.051    l-0.024,0.053l-0.053,0.025l-0.053,0.053c-1.168,1.172-2.499,2.188-3.931,3.046l-0.024,0.026c-0.39,0.234-0.807,0.441-1.197,0.65    l-0.081,0.025l-0.13,0.078l-0.077,0.027l-0.572,0.26l-0.077,0.053l-0.158,0.052l-0.077,0.026l-0.13,0.077l-0.081,0.026    l-0.13,0.052l-0.102,0.026l-0.13,0.052l-0.081,0.053l-0.13,0.052l-0.102,0.026l-0.133,0.052l-0.231,0.078l-0.105,0.026    l-0.105,0.052l-0.13,0.026l-0.102,0.052l-0.235,0.052l-0.13,0.053l-0.105,0.025l-0.13,0.026l-0.077,0.052l-0.158,0.026    l-0.077,0.026l-0.158,0.025l-0.077,0.026l-0.155,0.052h-0.081l-0.154,0.052l-0.077,0.025l-0.158,0.027l-0.077,0.025l-0.183,0.027    h-0.052l-0.183,0.051h-0.077l-0.158,0.053h-0.077l-0.183,0.025l-0.052,0.027l-0.179,0.025h-0.053l-0.21,0.025h-0.053l-0.179,0.027    h-0.053l-0.21,0.025l-0.025,0.025h-0.207l-0.053,0.027h-0.21h-0.024l-0.207,0.025h-0.053l-0.21,0.025h-0.025h-0.235h-0.024    l-0.235,0.027l0,0h-0.235h-0.024h-0.235l0,0h-0.26h-0.26h-0.26h-0.235l-0.26-0.027h-0.259l-0.263-0.025l-0.232-0.025l-0.263-0.027    l0,0l-0.231-0.025h-0.028l-0.235-0.025l0,0l-0.26-0.027l-0.235-0.025l0,0l-0.231-0.053l0,0l-0.26-0.025l-0.235-0.053l0,0    l-0.235-0.051h-0.024l-0.471-0.105l0,0l-0.235-0.052l0,0l-0.467-0.13h-0.028l-0.909-0.286h-0.028L197.798,134.147L197.798,134.147    z M158.383,118.709c0.6,2.447,1.825,4.634,3.517,6.353c1.951,1.952,4.502,3.306,7.366,3.749l0,0h0.028h0.049    c0.653,0.078,1.2,0.104,1.927,0.156h0.053c3.699,0,7.082-1.51,9.504-3.957l0.077-0.079l0.077-0.078l0.081-0.078l0.077-0.078    l0.077-0.078l0.078-0.104l0.081-0.078l0,0l0.077-0.078l0.077-0.077l0.077-0.105l0.053-0.078l0.077-0.078l0.081-0.104l0,0    l0.077-0.078l0.053-0.104l0.077-0.078l0.077-0.105l0.053-0.078l0.077-0.104l0,0l0.053-0.078l0.077-0.104l0,0l0.052-0.078v-0.025    l0.081-0.078l0,0l0.049-0.104l0,0l0.053-0.078h0.028l0.049-0.104l0,0l0.053-0.104l0,0l0.053-0.078l0.028-0.026l0.049-0.078l0,0    l0.053-0.104l0,0l0.053-0.104l0,0l0.052-0.105l0,0l0.053-0.104h0.025l0.052-0.078l0,0l0.053-0.105l0,0l0.053-0.104l0,0    l0.049-0.104l0,0l0.052-0.104l0,0l0.053-0.104l0,0l0.13-0.313l0,0l0.053-0.104l0,0l0.053-0.104l0,0l0.053-0.104l0,0l0.024-0.104    h0.028l0.025-0.104l0,0l0.053-0.105l0,0l0.024-0.129h0.028l0.025-0.105l0,0l0.053-0.104l0,0l0.077-0.209l0,0l0.028-0.104l0,0    l0.077-0.234l0,0l0.025-0.104l0,0l0.028-0.104h0.024l0.028-0.13l0,0l0.049-0.209l0,0l0.028-0.13h0.024l0.053-0.208H158.383z     M357.701,66.484v45.82h25.957l-12.133-45.82H357.701z M324.404,66.484v45.82h26.893v-45.82H324.404z M291.081,66.484v45.82    h26.918v-45.82H291.081z M257.782,66.484v45.82H284.7v-45.82H257.782z M224.485,66.484v45.82h26.893v-45.82H224.485z     M191.162,66.484v45.82h26.918v-45.82H191.162z M184.757,112.305v-45.82h-13.669l-12.133,45.82H184.757z M161.405,60.08h26.553    h33.326h33.294H287.8h0.104h0.077h33.116h0.207h33.115h0.184H374h0.053h7.184v-5.363h-4.633H166.038h-4.633V60.08z     M373.322,42.977H169.319v5.361h204.003V42.977z M200.561,160.337h-9.427v9.425h9.427V160.337z M380.977,221.777h-6.741h-0.081    H168.487h-0.105h-6.717v11.82h219.312V221.777z M338.54,164.242h-59.227l2.158,4.427h31.425c1.771,0,3.203,1.432,3.203,3.201    c0,1.771-1.432,3.202-3.203,3.202h-28.298l1.769,3.619h31.348c1.769,0,3.2,1.432,3.2,3.202s-1.432,3.202-3.2,3.202h-28.224    l4.4,9.061h36.629L338.54,164.242z M318.6,201.211c0.234-0.234,0.494-0.469,0.754-0.65h-21.686c0.26,0.182,0.52,0.416,0.727,0.625    c1.302,1.302,2.109,3.098,2.109,5.051c0,1.979-0.808,3.774-2.081,5.05c-1.302,1.302-3.074,2.083-5.051,2.083    c-1.954,0-3.751-0.781-5.025-2.083c-1.302-1.302-2.109-3.098-2.109-5.05c0-1.979,0.808-3.749,2.081-5.051    c0.235-0.209,0.471-0.443,0.73-0.625h-11.479c-1.772,0-3.204-1.432-3.204-3.203c0-1.77,1.432-3.201,3.204-3.201h9.216    l-15.386-31.605c-0.263-0.443-0.393-0.963-0.393-1.51c0-1.771,1.432-3.203,3.204-3.203h66.049l0.779-2.994    c0.313-1.457,1.59-2.551,3.151-2.551h21.843c1.744,0,3.176,1.432,3.176,3.202s-1.432,3.202-3.176,3.202h-19.396l-0.808,2.994    v0.078l-0.024,0.053l-0.053,0.207l-9.686,36.162c-0.391,1.406-1.692,2.369-3.096,2.369h-5.025c0.287,0.182,0.52,0.416,0.754,0.625    c1.277,1.302,2.085,3.071,2.085,5.051c0,1.952-0.808,3.748-2.085,5.05c-1.302,1.302-3.099,2.083-5.05,2.083    c-1.952,0-3.749-0.781-5.026-2.083c-1.302-1.302-2.109-3.071-2.109-5.05C316.514,204.283,317.321,202.487,318.6,201.211z     M216.364,160.337h-9.398v9.425h9.398V160.337z M191.134,185.564h9.427v-9.424h-9.427V185.564z M219.564,191.969h-15.726h-0.077    h-0.077h-15.726c-1.769,0-3.201-1.432-3.201-3.202v-15.724v-0.105v-0.078v-15.724c0-1.771,1.432-3.202,3.201-3.202h15.726h0.077    h0.077h15.726c1.769,0,3.201,1.432,3.201,3.202v15.724v0.078v0.105v15.724C222.765,190.537,221.333,191.969,219.564,191.969z     M206.965,185.564h9.398v-9.424h-9.398V185.564z M29.332,438.93c-1.822,0-3.331-1.485-3.331-3.333    c0-1.849,1.509-3.333,3.331-3.333h332.771c1.847,0,3.331,1.484,3.331,3.333c0,1.848-1.484,3.333-3.331,3.333H29.332z     M144.04,454.653c-1.772,0-3.204-1.432-3.204-3.202c0-1.744,1.432-3.202,3.204-3.202h236.077c1.769,0,3.201,1.458,3.201,3.202    c0,1.771-1.433,3.202-3.201,3.202H144.04z M282.279,469.024c-1.77,0-3.201-1.433-3.201-3.202c0-1.771,1.432-3.202,3.201-3.202    h163.367c1.769,0,3.2,1.432,3.2,3.202c0,1.77-1.432,3.202-3.2,3.202H282.279z M462.358,469.024c-1.744,0-3.176-1.433-3.176-3.202    c0-1.771,1.432-3.202,3.176-3.202h20.437c1.771,0,3.204,1.432,3.204,3.202c0,1.77-1.433,3.202-3.204,3.202H462.358z     M134.747,468.582c-1.772,0-3.204-1.432-3.204-3.203c0-1.77,1.432-3.202,3.204-3.202h77.399c1.769,0,3.201,1.433,3.201,3.202    c0,1.771-1.432,3.203-3.201,3.203H134.747z M303.68,259.293c1.667,0.6,2.527,2.422,1.927,4.088    c-0.572,1.641-2.422,2.499-4.061,1.926c-0.207-0.078-68.263-25.253-90.625-19.655c-22.962,5.728-73.573,34.157-73.703,34.235    c-1.534,0.859-3.488,0.313-4.348-1.225c-0.856-1.535-0.313-3.462,1.225-4.321c0.13-0.104,51.576-28.976,75.293-34.886    C233.701,233.363,303.473,259.216,303.68,259.293z M128.914,304.723l-0.053-0.025v-0.027c-3.436-3.279-6.222-4.398-8.539-4.477    c-2.292-0.079-4.425,0.91-6.3,1.822l-4.218,2.03c-8.384,3.983-22.078,10.491-24.212,14.579l-0.053,0.13    c-1.614,3.333-0.102,8.618,1.562,14.554c0.495,1.744,0.99,3.514,1.408,5.232c3.411,13.59,3.46,29.444,3.513,44.883    c0.053,16.115,0.13,31.788,4.089,43.373c0.47,1.405,0.702,1.9,0.832,1.9c0.913-0.025,2.787-1.119,5.233-2.552    c4.506-2.629,13.592-6.847,23.952-11.637c20.334-9.398,45.69-21.114,47.694-25.539c0.73-1.614,0.859-3.646,0.522-6.04    c-0.365-2.682-1.382-5.832-2.892-9.32c-3.643-8.592-12.859-25.357-22.257-40.535C141.513,320.682,133.757,309.409,128.914,304.723    z" style="fill-rule:evenodd;clip-rule:evenodd;"/></g></g><g id="Layer_1"/></svg>