<?xml version="1.0" ?><!DOCTYPE svg  PUBLIC '-//W3C//DTD SVG 1.1//EN'  'http://www.w3.org/Graphics/SVG/1.1/DTD/svg11.dtd'><svg enable-background="new 0 0 500 500" height="500px" id="Layer_1" version="1.1" viewBox="0 0 500 500" width="500px" xml:space="preserve" xmlns="http://www.w3.org/2000/svg" xmlns:xlink="http://www.w3.org/1999/xlink"><path clip-rule="evenodd" d="M240.914,404.457v-36.345h109.205  c9.899,0,17.993-8.181,17.993-18.168c0-4.998-2.007-9.541-5.27-12.815l-68.229-68.956h28.248c9.903,0,17.991-8.181,17.991-18.17  c0-4.996-2.001-9.539-5.269-12.813l-68.229-68.955h28.251c9.9,0,17.993-8.358,17.993-18.625c0-5.091-2.006-9.724-5.269-13.086  l-95.492-99.124c-7.086-7.268-18.531-7.268-25.615,0l-95.308,98.946c-3.362,3.362-5.453,8.083-5.453,13.264  c0,10.267,8.087,18.625,17.989,18.625h28.166l-67.958,68.77c-3.364,3.283-5.453,7.906-5.453,12.999c0,9.99,8.087,18.17,17.989,18.17  h28.166l-67.958,68.772c-3.364,3.282-5.452,7.905-5.452,12.999c0,9.987,8.087,18.168,17.988,18.168h118.293v36.345  c0,9.987-8.177,18.168-18.17,18.168H54.662c-12.536,0-22.713,10.18-22.713,22.715c0,12.537,10.177,22.712,22.713,22.712H445.34  c12.536,0,22.711-10.175,22.711-22.712c0-12.535-10.175-22.715-22.711-22.715H259.086  C249.091,422.625,240.914,414.444,240.914,404.457z" fill="#010101" fill-rule="evenodd"/></svg>