<?xml version="1.0" ?><svg height="24px" version="1.1" viewBox="0 0 24 24" width="24px" xmlns="http://www.w3.org/2000/svg" xmlns:sketch="http://www.bohemiancoding.com/sketch/ns" xmlns:xlink="http://www.w3.org/1999/xlink"><title/><desc/><defs/><g fill="none" fill-rule="evenodd" id="miu" stroke="none" stroke-width="1"><g id="Artboard-1" transform="translate(-828.000000, -335.000000)"><g id="slice" transform="translate(215.000000, 119.000000)"/><path d="M833,338 L829.628782,338 C829.281515,338 829,338.290842 829,338.648527 L829,356.351473 C829,356.709645 829.280983,357 829.628488,357 L849.371512,357 C849.718616,357 850,356.709158 850,356.351473 L850,338.648527 C850,338.290355 849.717904,338 849.371218,338 L846,338 L846,339.247631 C846,340.21717 845.217269,341 844.249584,341 L843.750416,341 C842.782056,341 842,340.215028 842,339.247631 L842,338 L837,338 L837,339.247631 C837,340.21717 836.217269,341 835.249584,341 L834.750416,341 C833.782056,341 833,340.215028 833,339.247631 L833,338 Z M830,353 L830,355.626114 C830,355.832605 830.192227,356 830.429827,356 L833,356 L833,353 L830,353 L830,353 Z M834,353 L834,356 L837,356 L837,353 L834,353 L834,353 Z M838,353 L838,356 L841,356 L841,353 L838,353 L838,353 Z M842,353 L842,356 L845,356 L845,353 L842,353 L842,353 Z M846,353 L846,356 L848.570173,356 C848.80756,356 849,355.832279 849,355.626114 L849,353 L846,353 L846,353 Z M830,349 L830,352 L833,352 L833,349 L830,349 L830,349 Z M834,349 L834,352 L837,352 L837,349 L834,349 L834,349 Z M842,349 L842,352 L845,352 L845,349 L842,349 L842,349 Z M846,349 L846,352 L849,352 L849,349 L846,349 L846,349 Z M830,345 L830,348 L833,348 L833,345 L830,345 L830,345 Z M834,345 L834,348 L837,348 L837,345 L834,345 L834,345 Z M838,345 L838,348 L841,348 L841,345 L838,345 L838,345 Z M842,345 L842,348 L845,348 L845,345 L842,345 L842,345 Z M846,345 L846,348 L849,348 L849,345 L846,345 L846,345 Z M834.750416,336 C834.335973,336 834,336.334158 834,336.752369 L834,339.247631 C834,339.663153 834.334755,340 834.750416,340 L835.249584,340 C835.664027,340 836,339.665842 836,339.247631 L836,336.752369 C836,336.336847 835.665245,336 835.249584,336 L834.750416,336 L834.750416,336 Z M844,336 C843.447715,336 843,336.447208 843,336.999051 L843,339.000949 C843,339.55271 843.448839,340 844,340 C844.552285,340 845,339.552792 845,339.000949 L845,336.999051 C845,336.44729 844.551161,336 844,336 L844,336 Z" fill="#000000" id="common-calendar-month-glyph"/></g></g></svg>