<?xml version="1.0" ?><svg height="24px" version="1.1" viewBox="0 0 24 24" width="24px" xmlns="http://www.w3.org/2000/svg" xmlns:sketch="http://www.bohemiancoding.com/sketch/ns" xmlns:xlink="http://www.w3.org/1999/xlink"><title/><desc/><defs/><g fill="none" fill-rule="evenodd" id="miu" stroke="none" stroke-width="1"><g id="Artboard-1" transform="translate(-323.000000, -299.000000)"><g id="slice" transform="translate(215.000000, 119.000000)"/><path d="M324.140488,302 C324.062898,302 324,302.065178 324,302.14489 L324,319.85511 C324,319.935131 324.06311,320 324.140488,320 L345.859512,320 C345.937102,320 346,319.934822 346,319.85511 L346,302.14489 C346,302.064869 345.93689,302 345.859512,302 L324.140488,302 Z M332.311468,305.965573 L335.568023,311.589603 C335.608096,311.658809 335.694647,311.676887 335.758887,311.631708 L338.521394,309.688868 C338.650699,309.59793 338.822887,309.629655 338.909233,309.764808 L343.929855,317.623341 C344.014748,317.75622 343.953368,317.863939 343.803474,317.863939 L326.147227,317.863939 C325.992123,317.863939 325.924733,317.751431 325.997976,317.6102 L331.713521,306.589112 L332.035029,305.969159 C332.107704,305.829023 332.232913,305.829911 332.311468,305.965573 Z M341.5,308 C342.328427,308 343,307.328427 343,306.5 C343,305.671573 342.328427,305 341.5,305 C340.671573,305 340,305.671573 340,306.5 C340,307.328427 340.671573,308 341.5,308 Z" fill="#000000" id="editor-image-picture-photo-glyph"/></g></g></svg>