<?xml version="1.0" ?><svg height="24px" version="1.1" viewBox="0 0 24 24" width="24px" xmlns="http://www.w3.org/2000/svg" xmlns:sketch="http://www.bohemiancoding.com/sketch/ns" xmlns:xlink="http://www.w3.org/1999/xlink"><title/><desc/><defs/><g fill="none" fill-rule="evenodd" id="miu" stroke="none" stroke-width="1"><g id="Artboard-1" transform="translate(-215.000000, -479.000000)"><g id="slice" transform="translate(215.000000, 119.000000)"/><path d="M218.5,493 C219.880712,493 221,491.880712 221,490.5 C221,489.119288 219.880712,488 218.5,488 C217.119288,488 216,489.119288 216,490.5 C216,491.880712 217.119288,493 218.5,493 L218.5,493 Z M218.5,492 C219.328427,492 220,491.328427 220,490.5 C220,489.671573 219.328427,489 218.5,489 C217.671573,489 217,489.671573 217,490.5 C217,491.328427 217.671573,492 218.5,492 L218.5,492 Z M227,493 C228.380712,493 229.5,491.880712 229.5,490.5 C229.5,489.119288 228.380712,488 227,488 C225.619288,488 224.5,489.119288 224.5,490.5 C224.5,491.880712 225.619288,493 227,493 L227,493 Z M227,492 C227.828427,492 228.5,491.328427 228.5,490.5 C228.5,489.671573 227.828427,489 227,489 C226.171573,489 225.5,489.671573 225.5,490.5 C225.5,491.328427 226.171573,492 227,492 L227,492 Z M235.5,493 C236.880712,493 238,491.880712 238,490.5 C238,489.119288 236.880712,488 235.5,488 C234.119288,488 233,489.119288 233,490.5 C233,491.880712 234.119288,493 235.5,493 L235.5,493 Z M235.5,492 C236.328427,492 237,491.328427 237,490.5 C237,489.671573 236.328427,489 235.5,489 C234.671573,489 234,489.671573 234,490.5 C234,491.328427 234.671573,492 235.5,492 L235.5,492 Z" fill="#000000" id="editor-more-detail-outline-stroke"/></g></g></svg>