<?xml version="1.0" ?><!DOCTYPE svg  PUBLIC '-//W3C//DTD SVG 1.1//EN'  'http://www.w3.org/Graphics/SVG/1.1/DTD/svg11.dtd'><svg enable-background="new 0 0 512 512" height="512px" id="Horse" version="1.1" viewBox="0 0 512 512" width="512px" xml:space="preserve" xmlns="http://www.w3.org/2000/svg" xmlns:xlink="http://www.w3.org/1999/xlink"><g><path fill="#ffffff" d="M396.399,340.404h15.752c3.313,0,6-2.688,6-6c0-44.461-26.164-70.176-46.055-83.296h13.156c3.313,0,6-2.687,6-6   c0-55.204-40.639-81.536-58.11-90.295l-0.461-0.23V136.61c0-29.946-24.362-54.31-54.31-54.31h-6v38.984   c-7.688-0.49-15.362,0.251-22.896,2.217l0.652,2.496l-0.704-2.48L69.582,174.552l13.81,49.252   c4.796,17.104,20.522,28.472,38.284,27.668l89.067-4.084l-3.32,182.311h182.455h9.199h37.34c3.314,0,6-2.686,6-6   C442.417,379.242,416.407,353.57,396.399,340.404z M405.966,328.404h-30.881l-16.993-71.748   C374.931,265.926,403.4,287.523,405.966,328.404z M379.071,239.108h-25.135l-11.035-46.593l-5.018-18.27   c-0.346-1.23-0.73-2.453-1.143-3.669C354.647,181.738,376.851,202.771,379.071,239.108z M307.729,417.699l-12.188-101.666   l-11.915,1.428l12.016,100.238h-75.998l3.037-166.76c18.142,14.338,42.239,19.333,64.788,13.008l-3.239-11.554   c-21.173,5.935-43.975-0.076-59.513-15.689l-1.874-1.883l-101.717,4.663c-12.13,0.599-22.9-7.223-26.18-18.92l-10.58-37.732   l12.88-3.655l12.479,39.179l11.434-3.643l-12.363-38.813l143.872-40.828c8.133-2.1,16.462-2.487,24.754-1.159l6.95,1.115V94.724   c20.499,2.923,36.31,20.593,36.31,41.886v27.282l0.708,1.325c2.094,3.922,3.756,8.049,4.932,12.238l4.928,17.93l12.925,54.571   l-0.065,0.151l0.113,0.049l39.682,167.542H307.729z M396.234,417.699l-17.438-73.627c16.299,8.15,48.697,29.768,51.437,73.627   H396.234z"/><rect fill="#ffffff" height="16.151" transform="matrix(-0.9994 -0.034 0.034 -0.9994 474.141 366.6912)" width="14" x="233.192" y="171.234"/></g></svg>