<?xml version="1.0" ?><!DOCTYPE svg  PUBLIC '-//W3C//DTD SVG 1.1//EN'  'http://www.w3.org/Graphics/SVG/1.1/DTD/svg11.dtd'><svg enable-background="new 0 0 500 500" height="500px" id="Layer_1" version="1.1" viewBox="0 0 500 500" width="500px" xml:space="preserve" xmlns="http://www.w3.org/2000/svg" xmlns:xlink="http://www.w3.org/1999/xlink"><path clip-rule="evenodd" d="M191.444,386.284c9.992,0,18.173,8.181,18.173,18.168  c0,9.992-8.181,18.172-18.173,18.172h-68.142c-12.536,0-22.713,10.175-22.713,22.716c0,12.536,10.177,22.711,22.713,22.711h254.396  c12.535,0,22.711-10.175,22.711-22.711c0-12.541-10.176-22.716-22.711-22.716h-68.143c-9.992,0-18.172-8.18-18.172-18.172  c0-9.987,8.18-18.168,18.172-18.168h118.112c20.078,0,36.34-16.267,36.34-36.346V68.29c0-20.077-16.262-36.34-36.34-36.34H73.333  c-20.079,0-36.34,16.264-36.34,36.34v281.649c0,20.079,16.262,36.346,36.34,36.346H191.444z M227.787,318.142  c0-12.536,10.177-22.715,22.713-22.715c12.537,0,22.715,10.179,22.715,22.715c0,12.537-10.178,22.711-22.715,22.711  C237.964,340.853,227.787,330.679,227.787,318.142z M102.408,77.375h296.183c11.084,0,19.99,8.905,19.99,19.991v141.729  c0,11.086-8.906,19.991-19.99,19.991H102.408c-11.081,0-19.989-8.904-19.989-19.991V97.367  C82.418,86.28,91.327,77.375,102.408,77.375z" fill="#010101" fill-rule="evenodd"/></svg>