<?xml version="1.0" ?><!DOCTYPE svg  PUBLIC '-//W3C//DTD SVG 1.1//EN'  'http://www.w3.org/Graphics/SVG/1.1/DTD/svg11.dtd'><svg enable-background="new 0 0 500 500" height="500px" id="Layer_1" version="1.1" viewBox="0 0 500 500" width="500px" xml:space="preserve" xmlns="http://www.w3.org/2000/svg" xmlns:xlink="http://www.w3.org/1999/xlink"><path clip-rule="evenodd" d="M31.949,399.409c0,20.078,16.264,36.345,36.34,36.345h363.421  c20.078,0,36.34-16.267,36.34-36.345V99.589c0-20.079-16.262-36.342-36.34-36.342h-281.65c-20.079,0-36.342,16.264-36.342,36.342  v272.566c0,9.991-8.177,18.168-18.17,18.168c-9.996,0-18.173-8.177-18.173-18.168V131.389c0-12.536-10.177-22.713-22.713-22.713  c-12.536,0-22.713,10.177-22.713,22.713V399.409z M286.341,128.664v69.047c0,11.081-8.907,19.989-19.987,19.989h-87.217  c-11.087,0-19.992-8.909-19.992-19.989v-69.047c0-11.081,8.905-19.989,19.992-19.989h87.217  C277.434,108.675,286.341,117.583,286.341,128.664z M404.452,290.384H177.317c-9.996,0-18.172-8.181-18.172-18.169  c0-9.991,8.177-18.172,18.172-18.172h227.135c9.992,0,18.172,8.181,18.172,18.172C422.624,282.203,414.444,290.384,404.452,290.384z   M404.452,363.069H177.317c-9.996,0-18.172-8.182-18.172-18.174c0-9.986,8.177-18.168,18.172-18.168h227.135  c9.992,0,18.172,8.182,18.172,18.168C422.624,354.888,414.444,363.069,404.452,363.069z M404.452,145.018h-63.6  c-9.986,0-18.168-8.181-18.168-18.172c0-9.99,8.182-18.17,18.168-18.17h63.6c9.992,0,18.172,8.181,18.172,18.17  C422.624,136.837,414.444,145.018,404.452,145.018z M404.452,217.701h-63.6c-9.986,0-18.168-8.181-18.168-18.17  c0-9.992,8.182-18.173,18.168-18.173h63.6c9.992,0,18.172,8.181,18.172,18.173C422.624,209.52,414.444,217.701,404.452,217.701z" fill="#010101" fill-rule="evenodd"/></svg>