<?xml version="1.0" ?><svg height="24px" version="1.1" viewBox="0 0 24 24" width="24px" xmlns="http://www.w3.org/2000/svg" xmlns:sketch="http://www.bohemiancoding.com/sketch/ns" xmlns:xlink="http://www.w3.org/1999/xlink"><title/><desc/><defs/><g fill="none" fill-rule="evenodd" id="miu" stroke="none" stroke-width="1"><g id="Artboard-1" transform="translate(-791.000000, -407.000000)"><g id="slice" transform="translate(215.000000, 119.000000)"/><path d="M793.002462,409 C792.448817,409 792,409.44892 792,410.007484 L792,422.992516 C792,423.548934 792.44266,424 792.998957,424 L795,424 L797.817098,427.275381 C798.177535,427.694454 798.770716,427.690228 799.133744,427.275381 L802,424 L812.997527,424 C813.551177,424 814,423.55108 814,422.992516 L814,410.007484 C814,409.451066 813.560542,409 812.997538,409 L793.002462,409 Z M793,410 L793,423 L795.516235,423 L798.471924,426.561768 L801.710693,423 L813,423 L813,410 L793,410 Z" fill="#000000" id="other-review-new-comment-outline-stroke"/></g></g></svg>