<?xml version="1.0" ?><!DOCTYPE svg  PUBLIC '-//W3C//DTD SVG 1.1//EN'  'http://www.w3.org/Graphics/SVG/1.1/DTD/svg11.dtd'><svg enable-background="new 0 0 500 500" height="500px" id="Layer_1" version="1.1" viewBox="0 0 500 500" width="500px" xml:space="preserve" xmlns="http://www.w3.org/2000/svg" xmlns:xlink="http://www.w3.org/1999/xlink"><path clip-rule="evenodd" d="M340.853,145.518c0,12.537,10.18,22.713,22.717,22.713  c12.535,0,22.715-10.177,22.715-22.713c0-12.538-10.18-22.715-22.715-22.715C351.032,122.803,340.853,132.98,340.853,145.518z   M113.718,268.173v24.985c0,11.268,9.174,20.441,20.442,20.441h252.124l-86.864-85.403c-7.268-7.271-18.898-7.271-26.154,0  l-18.359,18.079l-46.34-45.335c-7.267-7.271-20.346-7.271-27.523,0L113.718,268.173z M31.949,422.625  c0,20.079,16.264,36.341,36.34,36.341h363.421c20.078,0,36.34-16.262,36.34-36.341V77.376c0-20.079-16.262-36.342-36.34-36.342  H68.29c-20.077,0-36.34,16.264-36.34,36.342V422.625z M97.367,86.463h305.267c11.084,0,19.99,8.902,19.99,19.989v223.5  c0,11.082-8.906,19.987-19.99,19.987H97.367c-11.083,0-19.991-8.905-19.991-19.987v-223.5  C77.375,95.365,86.284,86.463,97.367,86.463z" fill="#010101" fill-rule="evenodd"/></svg>