<?xml version="1.0" ?><!DOCTYPE svg  PUBLIC '-//W3C//DTD SVG 1.1//EN'  'http://www.w3.org/Graphics/SVG/1.1/DTD/svg11.dtd'><svg enable-background="new 0 0 500 500" height="500px" id="Layer_1" version="1.1" viewBox="0 0 500 500" width="500px" xml:space="preserve" xmlns="http://www.w3.org/2000/svg" xmlns:xlink="http://www.w3.org/1999/xlink"><path clip-rule="evenodd" d="M213.658,113.468c-26.076-25.532-86.863-35.796-121.109,0.909  c-33.521,35.796-60.599,122.108-60.599,203.515c0,98.216,82.319,111.845,127.195,63.599c25.98-27.984,28.438-32.353,45.429-54.513  h90.853c17.079,22.16,19.44,26.528,45.426,54.513c44.881,48.246,127.198,34.617,127.198-63.599  c0-81.406-27.079-167.719-60.599-203.515c-34.247-36.706-94.946-26.441-121.111-0.909C276.253,123.28,250,127.095,250,127.095  S223.736,123.28,213.658,113.468z M177.317,173.431v26.349h26.351c10.54,0,19.076,8.174,19.076,18.17  c0,9.995-8.536,18.17-19.076,18.17h-26.351v26.35c0,10.541-8.181,19.077-18.172,19.077c-9.99,0-18.17-8.536-18.17-19.077v-26.35  h-26.351c-10.542,0-19.075-8.175-19.075-18.17c0-9.996,8.534-18.17,19.075-18.17h26.351v-26.349c0-10.54,8.18-19.08,18.17-19.08  C169.136,154.351,177.317,162.891,177.317,173.431z M340.853,186.15c0-12.536,10.18-22.713,22.717-22.713  c12.535,0,22.715,10.177,22.715,22.713s-10.18,22.713-22.715,22.713C351.032,208.863,340.853,198.687,340.853,186.15z   M295.427,240.663c0-12.536,10.179-22.713,22.715-22.713c12.537,0,22.711,10.177,22.711,22.713s-10.174,22.716-22.711,22.716  C305.605,263.379,295.427,253.199,295.427,240.663z" fill="#010101" fill-rule="evenodd"/></svg>