<?xml version="1.0" ?><!DOCTYPE svg  PUBLIC '-//W3C//DTD SVG 1.1//EN'  'http://www.w3.org/Graphics/SVG/1.1/DTD/svg11.dtd'><svg enable-background="new 0 0 31 41" height="41px" id="Layer_1" version="1.1" viewBox="0 0 31 41" width="31px" xml:space="preserve" xmlns="http://www.w3.org/2000/svg" xmlns:xlink="http://www.w3.org/1999/xlink"><g><path d="M10.567,1.069l0.333-1.12h20.041l-0.394,1.12c-1.816,0-3.204,0.404-4.163,1.211   c-0.958,0.808-1.801,2.493-2.527,5.056L16.35,33.613c-0.545,1.857-0.817,3.098-0.817,3.724c0,0.727,0.282,1.292,0.848,1.695   c0.727,0.524,2.099,0.808,4.117,0.848L20.194,41H-0.18l0.333-1.12c2.038,0,3.531-0.388,4.48-1.165   c0.948-0.777,1.806-2.478,2.573-5.102l7.568-26.277c0.464-1.614,0.696-2.835,0.696-3.663c0-0.747-0.283-1.332-0.848-1.756   C14.059,1.493,12.706,1.211,10.567,1.069z" fill="#231F20"/></g></svg>