<?xml version="1.0" ?><!DOCTYPE svg  PUBLIC '-//W3C//DTD SVG 1.1//EN'  'http://www.w3.org/Graphics/SVG/1.1/DTD/svg11.dtd'><svg enable-background="new 0 0 500 500" height="500px" id="Layer_1" version="1.1" viewBox="0 0 500 500" width="500px" xml:space="preserve" xmlns="http://www.w3.org/2000/svg" xmlns:xlink="http://www.w3.org/1999/xlink"><path clip-rule="evenodd" d="M31.949,431.711c0,20.078,16.264,36.34,36.34,36.34h363.421  c20.078,0,36.34-16.262,36.34-36.34V68.29c0-20.077-16.262-36.34-36.34-36.34H68.29c-20.077,0-36.34,16.264-36.34,36.34V431.711z   M386.284,354.482c0,12.536-10.18,22.716-22.715,22.716c-12.537,0-22.717-10.18-22.717-22.716  c0-102.845-83.41-186.251-186.251-186.251c-12.536,0-22.713-10.177-22.713-22.713c0-12.538,10.177-22.715,22.713-22.715  c67.414,0,122.745,23.26,166.173,66.686C365.292,234.012,386.284,289.253,386.284,354.482z M304.513,354.482  c0,12.536-10.175,22.716-22.715,22.716c-12.536,0-22.712-10.18-22.712-22.716c0-57.688-46.795-104.482-104.484-104.482  c-12.536,0-22.713-10.177-22.713-22.713c0-12.539,10.177-22.713,22.713-22.713C237.366,204.574,304.513,271.723,304.513,354.482z   M131.889,336.314c0-22.628,18.26-40.888,40.885-40.888s40.884,18.26,40.884,40.888c0,22.623-18.258,40.884-40.884,40.884  S131.889,358.938,131.889,336.314z" fill="#010101" fill-rule="evenodd"/></svg>