<?xml version="1.0" ?><!DOCTYPE svg  PUBLIC '-//W3C//DTD SVG 1.0//EN'  'http://www.w3.org/TR/2001/REC-SVG-20010904/DTD/svg10.dtd'><svg enable-background="new 0 0 32 32" height="32px" id="Layer_1" version="1.0" viewBox="0 0 32 32" width="32px" xml:space="preserve" xmlns="http://www.w3.org/2000/svg" xmlns:xlink="http://www.w3.org/1999/xlink"><g><path d="M32,30c0,1.104-0.896,2-2,2H2c-1.104,0-2-0.896-2-2V2c0-1.104,0.896-2,2-2h28c1.104,0,2,0.896,2,2V30z" fill="#172514"/><path d="M19.761,16l3.696-5.279c0.951-1.357,0.621-3.228-0.736-4.178c-1.357-0.951-3.228-0.621-4.178,0.736   L14,13.761V9c0-1.657-1.343-3-3-3S8,7.343,8,9v14c0,1.657,1.343,3,3,3s3-1.343,3-3v-4.768l4.542,6.488   c0.95,1.357,2.821,1.688,4.179,0.736c1.357-0.95,1.688-2.82,0.736-4.178L19.761,16z" fill="#5CBB6C"/></g><g/><g/><g/><g/><g/><g/></svg>