<?xml version="1.0" ?><!DOCTYPE svg  PUBLIC '-//W3C//DTD SVG 1.0//EN'  'http://www.w3.org/TR/2001/REC-SVG-20010904/DTD/svg10.dtd'><svg enable-background="new 0 0 32 32" height="32px" id="Layer_1" version="1.0" viewBox="0 0 32 32" width="32px" xml:space="preserve" xmlns="http://www.w3.org/2000/svg" xmlns:xlink="http://www.w3.org/1999/xlink"><g><path d="M29.991,5.586c1.332,2.384,0.893,5.193,0.369,6.854c-2.84,9.048-15.65,8.556-17.504,8.556   c-1.851,0-2.282,1.684-2.282,1.684l-1.384,5.89c-0.377,2.067-2.3,1.965-2.3,1.965s-2.497,0-4.169,0   c-0.105,0-0.202-0.007-0.293-0.02c-0.021,0.379,0.034,1.484,1.423,1.484c1.67,0,4.168,0,4.168,0s1.923,0.105,2.301-1.962   l1.383-5.891c0,0,0.433-1.684,2.283-1.684s14.664,0.493,17.504-8.555C32.124,11.885,32.639,8.17,29.991,5.586z" fill="#187FAE"/><path d="M7.902,27.286l1.385-5.891c0,0,0.43-1.682,2.283-1.682c1.85,0,14.663,0.489,17.501-8.556   c1.04-3.307,1.761-11.151-11.176-11.151H8.552c0,0-1.943-0.088-2.422,1.926L0.023,27.638c0,0-0.262,1.612,1.409,1.612   c1.672,0,4.171,0,4.171,0S7.526,29.354,7.902,27.286z M11.425,12.334l1.241-5.226c0,0,0.395-1.42,1.671-1.63   c1.276-0.212,3.448,0.036,4.008,0.14c3.629,0.665,2.857,4.015,2.857,4.015c-0.719,5.171-8.968,4.452-8.968,4.452   C10.94,13.63,11.425,12.334,11.425,12.334z" fill="#19597F"/></g><g/><g/><g/><g/><g/><g/></svg>